/* XPM */
static char *output[] = {
/* columns rows colors chars-per-pixel */
"64 64 256 2 ",
"   c #1B0704",
".  c #2C1311",
"X  c #38280A",
"o  c #2B2519",
"O  c #36291A",
"+  c #3A3B19",
"@  c #2F310E",
"#  c #342C28",
"$  c #2E3A25",
"%  c #33332D",
"&  c #3A3A2D",
"*  c #363827",
"=  c #322E33",
"-  c #332E39",
";  c #353534",
":  c #383637",
">  c #373833",
",  c #3A3934",
"<  c #36343A",
"1  c #39363A",
"2  c #3A393B",
"3  c #363938",
"4  c #2C2A2D",
"5  c #341F20",
"6  c #4A2A18",
"7  c #582915",
"8  c #443819",
"9  c #563719",
"0  c #51290B",
"q  c #693414",
"w  c #483A25",
"e  c #5C3725",
"r  c #41322E",
"t  c #653A25",
"y  c #663F31",
"u  c #4A1F0B",
"i  c #3B4E1B",
"p  c #3A4528",
"a  c #3D5D2A",
"s  c #356D33",
"d  c #46590C",
"f  c #475C15",
"g  c #504B18",
"h  c #6B481D",
"j  c #704910",
"k  c #5E6904",
"l  c #5C680C",
"z  c #4A651A",
"x  c #546618",
"c  c #58731A",
"v  c #57710C",
"b  c #646E05",
"n  c #636D0A",
"m  c #60670A",
"M  c #637005",
"N  c #68750A",
"B  c #657817",
"V  c #727A11",
"C  c #444A28",
"Z  c #574826",
"A  c #495727",
"S  c #555928",
"D  c #444934",
"F  c #554837",
"G  c #4A5535",
"H  c #595833",
"J  c #64552D",
"K  c #684736",
"L  c #695738",
"P  c #755637",
"I  c #724C2D",
"U  c #4C6626",
"Y  c #576626",
"T  c #587626",
"R  c #546636",
"E  c #507533",
"W  c #626B26",
"Q  c #677826",
"!  c #68773A",
"~  c #736D31",
"^  c #342E40",
"/  c #393642",
"(  c #363442",
")  c #505443",
"_  c #6B5143",
"`  c #676546",
"'  c #776649",
"]  c #77744E",
"[  c #855217",
"{  c #8B5B32",
"}  c #846738",
"|  c #956C32",
" . c #AC7532",
".. c #9F6A1B",
"X. c #C77720",
"o. c #865A48",
"O. c #976A46",
"+. c #967649",
"@. c #8C7655",
"#. c #8F6C4C",
"$. c #A97950",
"%. c #8D6A63",
"&. c #C57540",
"*. c #79840A",
"=. c #678315",
"-. c #75871B",
";. c #7C951A",
":. c #769309",
">. c #7EA213",
",. c #5C8328",
"<. c #5A8638",
"1. c #6A8628",
"2. c #758725",
"3. c #799226",
"4. c #668B37",
"5. c #699437",
"6. c #799A3C",
"7. c #6D952D",
"8. c #68922D",
"9. c #539246",
"0. c #758745",
"q. c #7A9748",
"w. c #6B8F50",
"e. c #7AA54E",
"r. c #829C0C",
"t. c #859D04",
"y. c #859D13",
"u. c #849B1B",
"i. c #859717",
"p. c #949A16",
"a. c #90940B",
"s. c #85A20C",
"d. c #8BA30E",
"f. c #88A206",
"g. c #97AB0A",
"h. c #9CB10C",
"j. c #85A313",
"k. c #8BA313",
"l. c #8BA21B",
"z. c #88A418",
"x. c #96A816",
"c. c #9AB113",
"v. c #A6B60B",
"b. c #BDBC05",
"n. c #BEBB0A",
"m. c #B9B707",
"M. c #A6AB18",
"N. c #A7B716",
"B. c #BABC15",
"V. c #869825",
"C. c #899135",
"Z. c #BB8733",
"A. c #95A439",
"S. c #90AA30",
"D. c #ABB62C",
"F. c #B38618",
"G. c #D08B16",
"H. c #C1BC09",
"J. c #C0BE12",
"K. c #D19330",
"L. c #D6A937",
"P. c #EBB02E",
"I. c #BAC50B",
"U. c #B9C517",
"Y. c #ACC212",
"T. c #BAC53A",
"R. c #B5C528",
"E. c #C2C40B",
"W. c #C5C807",
"Q. c #CCD40C",
"!. c #CAD507",
"~. c #C2C313",
"^. c #C3CC15",
"/. c #CBD413",
"(. c #C9D518",
"). c #D6DD19",
"_. c #D3D809",
"`. c #C4CA39",
"'. c #CCD32F",
"]. c #E0D925",
"[. c #8D855C",
"{. c #909350",
"}. c #BA8746",
"|. c #B89546",
" X c #B58C58",
".X c #A59152",
"XX c #89B648",
"oX c #8EAE50",
"OX c #ADB54B",
"+X c #9A8564",
"@X c #AB8A67",
"#X c #91B561",
"$X c #B5AA70",
"%X c #C99C47",
"&X c #CB9152",
"*X c #DAAC48",
"=X c #C5A45A",
"-X c #D8A656",
";X c #D1B34E",
":X c #E8B857",
">X c #E8B54D",
",X c #C39870",
"<X c #D4B365",
"1X c #D2AA73",
"2X c #E9B868",
"3X c #E6B26F",
"4X c #9CC653",
"5X c #B2C854",
"6X c #AFCA51",
"7X c #BCCD6A",
"8X c #D3D857",
"9X c #C4D051",
"0X c #FED956",
"qX c #F3C850",
"wX c #D3E052",
"eX c #EAE75B",
"rX c #F5E75E",
"tX c #E6E74C",
"yX c #D4DD7A",
"uX c #D4D26B",
"iX c #F7C866",
"pX c #FBDD77",
"aX c #F1D16F",
"sX c #DDE268",
"dX c #DAE17A",
"fX c #EBE463",
"gX c #E8E668",
"hX c #F6EB66",
"jX c #E5E977",
"kX c #FAE57B",
"lX c #FBF372",
"zX c #BAB783",
"xX c #D5B986",
"cX c #E5BD87",
"vX c #D6C786",
"bX c #CDDE87",
"nX c #D4DC88",
"mX c #D0D493",
"MX c #E8C48B",
"NX c #E6D793",
"BX c #F4D18B",
"VX c #D5E189",
"CX c #D6E397",
"ZX c #CEE08A",
"AX c #F9E988",
"SX c #FAF38D",
"DX c #F6EB94",
"FX c #FAF698",
"GX c #E8E792",
"HX c #DBE4AC",
"JX c #FDF9A8",
"KX c #F5F2AC",
"LX c #F7F6D2",
"PX c #FDFDF4",
"IX c #FEFDFE",
"UX c #FDFCE8",
/* pixels */
": : : : : : : : : : : : : : : : : : : : : : : 1 : : : : : : : : : : : : : : : : : : : : : : : : : : : : : : : : : : 1 : : : : : ",
": : : : : : : : : : : : : : : : 1 : : : : : : : : : : : : : : : : : : : : : : : : : : : : : : : : : : : : 1 : : : : : : : : : : ",
": : : : : : : : : : : : : : : : : : : : : : : : : : : : : : : : : : : : : : : : : : : : : : : : : : : : : : : : : : : : : : : : ",
": : : : : : 1 : : : 1 : 1 : : : : : : : : : : : : : : : : : : : : : : 1 : : : : : : : : : 1 : : : 1 : : : : : : : : : : ; : : : ",
": : : : : : : : : : : 1 : : : : : : : : : : : : : : : : : , : : 1 : : : : 1 < : > : : : : : : : : : : : : : : : : : : : 1 : : 1 ",
": : : : : : : : : : : : : : : : : : : : : : : : : : : , : : , 2 , > , 2 , & : : : : : : : 1 : : : : : : : 1 : : 1 : : : : : : : ",
": : : : 1 : : : : : : : : : : : : : : : : : : : : : : > , ( ^ - - - < ^ / : & : < 1 : : : : : : : : : : : : : : : : : : : : : : ",
": : : : 1 : : : : : : : : : : : : : : : : : : : : : 1 ^ ; p S Y B W S p < ^ 1 : > : : : : : : : : : : : : : : : : : : : : : : : ",
": : : 1 : : : : : : : : : : : : : : : : : : : : : : ; p Q ;.j.k.k.f.f.u.Q g % < , : : : : : : : : : : : : : : : : : : : < : : : ",
": : : : : : : : : : : : : : : : : : : : : : : , / = x V.j.c.R.6X8X9XR.x.d.u.T ; < : : > 1 < : : : : : : : : 1 : : : : : : : : : ",
": : : : : : : : : : : : : : : : : : : : : : 1 : > B k.x.9XgXGXFXSXkXfXtX'.f.k.2.& ; / : > 1 : : : 1 : : : : : : : : : : : : : : ",
": : : : : : : : : : : 1 : 1 ; : : : : : : 1 : % Q k.c.8XFXLXPXPXPXIXLXKXDXsXM.l.;.p < 2 > : : : 1 ; : : : : : : : : : : : : : : ",
": : : : : : ; 1 : : : : : : : : : : : : : : & Q g.D.jXLXPXIXIXIXIXIXPXUXLXAXeXN.r.3.& 2 > > : : : : : : : : : : : : : : : : : : ",
": : : : : : 1 : : 1 : : : 1 : : : : 1 : > < W t.x.jXLXIXIXIXIXPXLXGXjXjXeXfXgXeXN.p.Q ; 1 , 1 : : : : : : : : : : : : : : : : : ",
": 1 : : : : : : : : : : : : : : : : 1 , % G k.x.GXUXIXIXIXPXLXHXbXyXsXjXgXfXfXfXgXx.k.Y = r 2 : : : : : : : 1 ; : : : : : : : : ",
": ; 1 : : : : : : : : : : : : : : 1 1 : , i.d.8XLXIXPXUXLXHXmXZXCXCXVXnXbXyXgXfXfXwXx.s.C < , 1 : : : : : : : 1 : : : : : : : 1 ",
": : : : : : : : : : : : : : : : : : r % Q d.`.gXjXGXHXCXbXbXVXuXOX5X7XVXCXZXyXjXgXhXT.f.-.& : < : : : 1 : : : : 1 : : : : : : : ",
": : : : : 1 : : : : : : : : : : : : = S k.c.fXfXgXZXZXZXZXsX'.N.h.f.r.l.6XZXZXyXsXrXfXD.k.Y - ; : : : : : : : : : : : : : : 1 1 ",
": : : : : : : : : > 1 1 > : & > 1 : * 3.d.T.rXfXVXCXCXwX'.2.v././.Q.v.f.s.A.yXZXyXgXfXeXk.V.C < 1 1 : : : : : : : : : : 1 : 1 : ",
": : : : : : : : : : : 1 1 / 1 > < ; Y y.h.].eXjXyX5XD.(.I.2.C.I.!.Q.).Y.f.j.S.yXVXdXeXhX`.y.Q < 2 ; : : : : : : : : : : : : : : ",
"1 : : : : : : : : : : : = - ( 2 1 & ;.s.I.!.'.R.l.r.Y._.g.A.OXd.I.v.B.(.h.f.:.S.bXVXgXfXgXc.>.p - 3 1 : : : : : : : : : : : : : ",
": : : : : : ; 1 : , 1 ; ` Y = p % Y d.Y._.!.(.g.r.d.(.^.V 9X6XV s.j.j.Y.Y.>.d.s.S.dXgXfXhXT.z.Q $ 2 : : : : : : : : : 1 : : : : ",
": : : : : : : 1 3 > / 4 q.uX` = $ 2.c.R.!.!.!.j.j.x.(.*.OXwX5Xc >.>.r.v.Y.s.z.j.:.D.gXgXgXsXx.y.p < : : : : : : : : : : : : : : ",
": : : : : : : : 3 / r o R 6X#XR #Xv v.(.I.!.(.g.f.x.-.A.6XT.5Xv x ;.j.U.v.y.s.s.j.y.6XlXgXhXT.f.R : r : : : : 1 : : : : : : : : ",
": : : : : : : : 1 = L J o w.4X4X{.=.^.!.!.!._.v.i.v {.6X4X6XA.c q.=.k.k.s.j.j.l.C.0.A.tXfXeXfXd.i., < : : : : : : : : : : : : : ",
": : : : : : : : 2 o  XnXO o R {.T =.U.!.!.!.!.~.v 6.6X4X4XXXv 1.oXt.Y.k.z.z.V.Q Z 8 C.T.fXrXjXR.t.A < : : : : : : : : : : : : : ",
": : : : : : : : 2 O ;XJXCX' @ @ U 4.1.;.N.'.).Y.,.#Xe.7.,.d z 4XXXx.).N.2.S i X {.+.~ {.OXgXeXwXk.Q = : : : : : : : : : : : : : ",
": : : : : : : : 2 @ <XJXFXJXvX] + $ R <.<.3.8X3.8.,.z v ,.8.XX4X1.2.V.g + w ' uXAX[ S D.L.tXtXgXM.u.C 1 % 1 1 : : : 1 : 1 : : : ",
"1 : : : : : : : 2 4 %XSXFXSXJXJXNX.XZ i a <.<.,.,.E <.<.w.e.e.<.i f 8 J .XBXSX0XK.j d U.U.`.hXlXT.>.Y = > : : : : : 1 : : 1 : : ",
": : : : : : : : 2 4 } hXFXFXFXSXAXAXpX$XZ i 9.9.<.,.>.>.=.v ,.z U g .XAXkXiXK.K.K.g R 7.3.2.A.5X8Xx.B % 2 : , : : : : : : ; : : ",
": : ; : : : 1 : 1 & O Z.rXpXAXSXFXGXBX0XqX} $ 9.<.>.)./.(./.N.c a | hX>X-XK.K.%Xj U e.5.4.9.4.4.C.V.{.D % 1 : : : : : : : : : : ",
": : 1 : : : : ; 1 2 1 #  .P.P.P.qXkXFXSXdXiX[ p 9.,.Y.!.!.Q.S.U i :XqX*X$. .| h D E U z x Y T E <.z Y * % 1 1 : : : : : : : : : ",
": : : : : : , : : : , : # g ....G.K.*XaXDXpX<X9 R <.=.N.r.W U a Z qX>XK.8 * p s E U T V.D.D.A.W X @ L ` # : , : : : : : : : : : ",
": : : : , , : 1 2 1 > O O S S * o u q ..>XpXkXZ.+ 5.c c f p D p P qXL.X.9 8 + A S W g Q A.{.J S [.vXFX+.o 2 : : : : : : : : : : ",
": : : : : : < # o & O #.+.X 8 o C .X.Xw { :XP.:X9 ~ ! A G 8 1XAXAX2X*XG.G.K.[ + S O 8 F F 8 =XBXkX0XqXj # 2 2 : : : : : : : : : ",
": : : : : : = Z [.O 5  .DXvX+.q } MX|.7 6  X>XP.I w + Z L 6 X | |.:XP.G. .j X A + @.GXJX#.}.qXP.G.P.| Z D > : : : : : : < : : : ",
": : : : : 1 : w KXmXX .. .1XBX2X-X{ O.q 9 | -XX.[ O $XDXMXNX@.  t -X`.G.. ' L + 8 uXhXNXr K.P.| t 6 O [.G % : : : < : : : : : : ",
": : : < 3 3 r 5 +XJX@.{ &.u  . .&X=X{ q 9 o.-XX.q zXDX$.&.&XiX} 7 :X>XK.J JX] X w L.0XaX6 j F.K.<XvX' H ! - > : : : : : : : : : ",
": : : : 2 1 # w $.cX$Xo.3Xu I :XK.#.{ 7 0 $.cX&.' AX$.{ t | K.%Xe &XqXK.{ hXP X 8 L.qX2XK .X@.6 I &X1XD ) < , 1 : : : : : : : : ",
": : : : / r 5 #.1XK o.K xX$.. e o.$.O.. 7 xXcX#..XpX{ 7 [ q G.K.K &X>XL.P 0Xh 8 u F.qX*XZ &X1Xt 7 +.<XK * / , 2 : : : : : : : : ",
": : : : > , ; # O 5 r ] K BX@XP ,X&Xt y 1XMX1X_ uX2X .6 q 7 L. .t &X:X*XZ kXO.. 7  .>XZ.P |.  t u K.1X_ F 1 < ( : : 1 1 : : : : ",
": : : : : ; : : 3 3 4 H ' P 3XBX1X$.@XcXcX@Xe =X,X| :X .I L.:Xt { &XiX=X  |.0X$.K.-X-X7 P kX+.h %X2Xo.' F = $ < / : 1 : : : : : ",
": : : : : : : : - ) {.! [.! ` [.,XxX,X@Xo.h 1X XP K { <X2X&Xt K &X-XFXP +XP ~ ;X-X&Xy @X' P 3XiX<X+XR #X! ! ` p ; > : 1 : : : : ",
": : : : : : : : < p oXXX5.<.5.] J P o.{  X3XO.. . _ o.y 9 t o.&X1XJX%.. $.MX#.K K _ _ +.NX@XF P {.C.q.7.6.e.#Xp : > : : : : : : ",
": : : : : : : : : ; G #XXXe.E T C.{.+.+.L + o $ p G K +X$XcXMXBXxX' Z 8 o Z #.%.' Z w O e @.#XXXw.<.7.XXS.4X! ; / > 1 1 : : : : ",
": : : : : : : : : 2 = p 0.{.q.E U Y p p p G A C c A.] Z K P P J F ~ OXp.C D 8 8 8 A W W i g 7.,.,.S.e.XX4Xw.$ 3 1 ; : : : : : : ",
": : : : : : : : : : : < $ T =.V.-.c T U U i A f 3.z.V.A.C.] } oXD.D.B.p.x A A S Y Y l d U ,.,.5.6.XXXXXX! > < : 3 : : : : : : : ",
": : : : : : : : : : : 1 % ! 3.2.7.T c T z a z -.z.f.z.k.M k V V V N n m m d A U z z z U z i =.1.5.5.1.T = > < : : : : : : : 1 : ",
": : : : : : : : : : : : < C ,.4.,.9.] U z B ;.j.f.f.s.y.b b b b n m n M M n x d z f i g d p.m.a.c.y.i.H < & < : : : : : : : : : ",
": : : : : : : : : 1 , / < D e.e.{.q.Q 2.;.y.d.d.j.j.j.N b n b b M M M b n b b n l l v l a.J.H.W.(.g.V.p : 1 < : : : : : : : : : ",
"< : : : : : : : : : : : : ; D ! 1.-.a.~.N.N N *.*.=.N k b N b b b b n n n b b b M l n a.J.H.n./.N.j.W * 1 1 1 : : : : : : : : : ",
": : : : : : : : : : : : 1 > * 1.f.R./.m.J.D.V m l n M M b b b b b b b b b b b b k M p.J.J.m.!.I.z.;.* > 1 1 : : : : : : : : : : ",
": : : : : : : : : : : : : : ^ C u.f.^.E.n.H.B.p.N k b b b b b n M M n n n n m m *.M.~.W.m.E./.l.d.U - 1 < 1 : : : : : : < : : : ",
": : : : : : : : : : : : : 1 , ; Y z.g.(.E.b.I.J.B.a.V b m m m b k k k k b N *.M.R.J.H.b.E.(.g.l.Q # 1 : 1 : : : : : : : : : : : ",
": : : : : : : : : : : : : : : / ; Q j.g.Q.W.m.H.b.E.B.M.a.a.V V V *.*.i.x.M.~.E.I.H.n.E.(.v.k.-.; , > : : : : : : : : : 1 : : : ",
": : 1 : : : : : : : : : : : : : 3 * =.x.d.U.!.I.b.m.n.E.W.E.J.J.J.B.E.E.E.H.b.H.H.H.W.^.g.k.3.* 1 3 ; : : : : : : : : : : : : : ",
": : : : : : : : : : : : : : : : 1 : ; W l.d.Y././.E.H.b.b.H.n.E.H.H.n.b.n.b.b.b.W.!.U.x.z.2.* : / , : : : : : < : : : : : : : : ",
": : : : : : : : : : : : : : : : 1 : : = x j.z.M.U./.!.Q.E.H.I.I.b.b.n.J.H.W.^.(.U.c.s.l.Y $ 1 / 1 : : 1 : : : : : : : : : : : : ",
": : 1 : : : : : : : : : : : : : : , : / - C Q u.k.h.v././././.Q././.Q._./.^.U.g.d.l.-.C ; 1 , , : : : : : : : : 1 : : : : : : : ",
": : : : : : : : : : : : : : : : : : : : 2 < % f 2.i.k.d.g.v.v.N.Y.Y.N.v.h.g.d.u.-.S & ; 1 1 : : : : : : : : : : : : : : : < : : ",
": : : : : : : : : : : : : : : : : : : : : : 2 = % C Y 2.y.u.k.k.k.y.k.i.;.-.W C % ; % , 1 1 : : : : : : : : : : : : : : : : : : ",
": : : : : : : : : : : : : : : : : : : : : 1 : 3 ( ^ # % , D G S Y Y S C p ; % > : > : : 1 1 : : : : : : : : : : : : : : : : : : ",
": : 1 : : : : : : : : : : : : : : : : : : : : > > > > 2 ^ 1 ; ; - = - : 1 1 1 1 : 1 1 1 1 : : : : : : : : : : : : : : 1 : : : : ",
": : : : : : : : : : : : : : : : : : : : : : : < > > 1 1 > 3 1 2 r 1 : & , 1 1 1 > 1 < 1 1 : : : : : : : : : : : : : : : : : : : "
};
