/* XPM */
static char *gentle_mates[] = {
/* columns rows colors chars-per-pixel */
"64 64 181 2 ",
"   c #1C1C1C",
".  c #2B311D",
"X  c #1B1923",
"o  c #221E2C",
"O  c #221C33",
"+  c #242425",
"@  c #2B2D26",
"#  c #25232D",
"$  c #2B2B2B",
"%  c #29272C",
"&  c #2F302F",
"*  c #343925",
"=  c #30312B",
"-  c #363A2A",
";  c #343928",
":  c #262132",
">  c #292634",
",  c #2D2B33",
"<  c #2B2539",
"1  c #2D293A",
"2  c #302F33",
"3  c #302D3B",
"4  c #333333",
"5  c #3A3C37",
"6  c #34323B",
"7  c #3B3B3B",
"8  c #373837",
"9  c #3C4425",
"0  c #3E4134",
"q  c #3D4038",
"w  c #414D1E",
"e  c #4E5F1D",
"r  c #56691C",
"t  c #556A18",
"y  c #5A7019",
"u  c #647C1C",
"i  c #627B17",
"p  c #444C2E",
"a  c #4A542D",
"s  c #4E592D",
"d  c #495623",
"f  c #414635",
"g  c #454C32",
"h  c #444837",
"j  c #4C5432",
"k  c #4E5538",
"l  c #535E32",
"z  c #51593E",
"x  c #56652E",
"c  c #5B6C2C",
"v  c #576827",
"b  c #5E712A",
"n  c #5C6B33",
"m  c #556230",
"M  c #647927",
"N  c #2C2541",
"B  c #393543",
"V  c #3D3C42",
"C  c #403F43",
"Z  c #444444",
"A  c #494A47",
"S  c #4C4C4C",
"D  c #595E4C",
"F  c #545945",
"G  c #4B4854",
"H  c #524E5D",
"J  c #535352",
"K  c #5C5C5C",
"L  c #585954",
"P  c #5F605E",
"I  c #656F46",
"U  c #65685D",
"Y  c #514B63",
"T  c #5D5C62",
"R  c #595566",
"E  c #646464",
"W  c #696966",
"Q  c #6C6C6C",
"!  c #65636A",
"~  c #6F706E",
"^  c #6B6A71",
"/  c #6B6777",
"(  c #726F7B",
")  c #706D77",
"_  c #747474",
"`  c #7A7A7A",
"'  c #797977",
"]  c #688514",
"[  c #718E1D",
"{  c #7B9C1D",
"}  c #7DA40C",
"|  c #7FA907",
" . c #7EA11A",
".. c #6A8225",
"X. c #6F8923",
"o. c #728B25",
"O. c #759221",
"+. c #7B9923",
"@. c #82AC05",
"#. c #82AA09",
"$. c #8DBB05",
"%. c #85AB15",
"&. c #81A41C",
"*. c #86AA19",
"=. c #89AF19",
"-. c #8DB516",
";. c #8FB915",
":. c #8AB11A",
">. c #92BD13",
",. c #9ACA0D",
"<. c #91C300",
"1. c #9FD10C",
"2. c #96C213",
"3. c #9CCC10",
"4. c #A2D50D",
"5. c #A9DC0B",
"6. c #A5DB07",
"7. c #A7D510",
"8. c #ABE402",
"9. c #AEE901",
"0. c #ACE30C",
"q. c #AFE808",
"w. c #B3EE05",
"e. c #B3EC09",
"r. c #B1E00F",
"t. c #B6F401",
"y. c #B8F600",
"u. c #BCFB00",
"i. c #C1FF00",
"p. c #C9FF00",
"a. c #D0FF00",
"s. c #81827F",
"d. c #797583",
"f. c #807D87",
"g. c #838383",
"h. c #88878C",
"j. c #8B8B8B",
"k. c #858586",
"l. c #90918E",
"z. c #8D8B95",
"x. c #8A8696",
"c. c #928F99",
"v. c #929292",
"b. c #9B9B9B",
"n. c #999A97",
"m. c #A1A29F",
"M. c #9B98A5",
"N. c #A09DA9",
"B. c #A3A3A3",
"V. c #ABABAB",
"C. c #A9AAA7",
"Z. c #B1B2AF",
"A. c #AAA6B5",
"S. c #ADABB4",
"D. c #AAA6B5",
"F. c #B3B3B3",
"G. c #BCBCBC",
"H. c #B5B4B9",
"J. c #C0C1BF",
"K. c #BCBAC2",
"L. c #C1BFC5",
"P. c #C3C4C3",
"I. c #CBCCCB",
"U. c #C6C5CA",
"Y. c #CFD0CE",
"T. c #D0CFD4",
"R. c #D3D3D3",
"E. c #D6D5D9",
"W. c #DBDBDB",
"Q. c #D7D8D4",
"!. c #DFE0DF",
"~. c #E3E3E3",
"^. c #EDEDED",
"/. c #EFF0EC",
"(. c #F0F0EF",
"). c #EFEFF0",
"_. c #F0EFF3",
"`. c #F3F3F3",
"'. c #F8F9F6",
"]. c #F5F4F9",
"[. c #FDFDFD",
/* pixels */
"y.y.y.y.y.y.y.y.y.y.y.y.y.y.y.y.y.y.y.y.y.y.y.y.y.y.y.y.y.y.y.y.y.y.y.y.y.y.y.y.y.y.y.y.y.y.y.y.y.y.y.y.y.y.y.y.y.y.y.y.y.y.y.y.",
"y.y.y.y.y.y.y.y.y.y.y.y.y.y.y.y.y.y.y.y.y.y.y.y.y.y.y.y.y.y.y.y.y.y.y.y.y.y.y.y.y.y.y.y.y.y.y.y.y.y.y.y.y.y.y.y.y.y.y.y.y.y.y.y.",
"y.y.y.y.y.y.y.y.y.y.y.y.y.y.y.y.y.y.y.y.y.y.y.y.y.y.y.y.y.y.y.y.y.y.y.y.y.y.y.y.y.y.y.y.y.y.y.y.y.y.y.y.y.y.y.y.y.y.y.y.y.y.y.y.",
"y.y.y.y.y.y.y.y.y.y.y.y.y.y.y.y.y.y.y.y.y.y.y.y.y.y.y.y.y.y.y.y.y.y.y.y.y.y.y.y.y.y.y.y.y.y.y.y.y.y.y.y.y.y.y.y.y.y.y.y.y.y.y.y.",
"y.y.y.y.y.y.y.y.y.y.y.y.y.y.y.y.y.y.y.y.y.y.y.y.y.y.y.y.y.y.y.y.y.y.y.y.y.y.y.y.y.y.y.y.y.y.y.y.y.y.y.y.y.y.y.y.y.y.y.y.y.y.y.y.",
"y.y.y.y.y.y.y.y.y.y.y.y.y.y.y.y.y.y.y.y.y.y.y.y.y.y.y.y.y.y.y.y.y.y.y.y.y.y.y.y.y.y.y.y.y.y.y.y.y.y.y.y.y.y.y.y.y.y.y.y.y.y.y.y.",
"y.y.y.y.y.y.y.y.y.y.y.y.y.y.y.y.y.y.y.y.y.y.y.y.y.y.y.y.y.y.y.y.y.y.y.y.y.y.y.y.y.y.y.y.y.y.y.y.y.y.y.y.y.y.y.y.y.y.y.y.y.y.y.y.",
"y.y.y.y.y.y.y.y.y.y.y.y.y.y.y.y.y.y.y.y.y.y.y.y.y.y.y.y.y.y.y.y.y.y.y.y.y.y.y.y.y.y.y.y.y.y.y.y.y.y.y.y.y.y.y.y.y.y.y.y.y.y.y.y.",
"y.y.y.y.y.y.y.y.y.y.y.y.y.y.y.y.y.y.y.y.y.y.y.y.y.y.y.y.y.y.y.y.y.y.y.y.y.y.y.y.y.y.y.y.y.y.y.y.y.y.y.y.y.y.y.y.y.y.y.y.y.y.y.y.",
"y.y.y.y.y.y.y.y.y.y.y.y.y.y.y.y.y.y.y.y.y.y.y.y.y.y.y.y.y.y.y.y.y.y.y.y.y.y.y.y.y.y.y.y.y.y.y.y.y.y.y.y.y.y.y.y.y.y.y.y.y.y.y.y.",
"y.y.y.y.y.y.y.y.y.y.y.y.y.y.y.y.y.y.y.y.y.y.y.y.y.y.y.y.y.y.y.y.y.y.y.y.y.y.y.t.t.u.y.t.y.y.u.t.y.y.y.y.y.y.y.y.y.y.y.y.y.y.y.y.",
"y.y.y.y.y.y.y.y.y.y.y.y.y.y.y.y.y.y.y.y.y.y.y.y.y.y.y.y.y.y.y.y.y.y.y.y.y.y.y.t.t.t.t.u.y.y.y.t.y.y.y.y.y.y.y.y.y.y.y.y.y.y.y.y.",
"y.y.y.y.y.y.y.y.y.y.y.y.t.t.t.t.t.t.y.y.y.y.y.y.y.y.y.y.y.y.y.y.y.y.y.y.y.y.y.u.y.y.t.t.t.t.t.t.t.t.y.y.y.y.y.y.y.y.y.y.y.y.y.y.",
"y.y.y.y.y.y.y.y.y.y.y.t.u.i.i.i.u.u.y.t.y.y.y.y.t.t.t.t.t.y.t.y.t.t.t.t.t.y.t.t.y.y.t.t.u.u.u.i.i.y.y.y.y.y.y.y.y.y.y.y.y.y.y.y.",
"y.y.y.y.y.y.y.y.y.y.t.u.2.{ { | 6.9.y.y.t.t.t.t.u.i.i.i.u.i.i.u.i.i.i.i.i.u.u.u.t.t.u.i.w.6.8.} *.y.u.t.y.y.y.y.y.y.y.y.y.y.y.y.",
"y.y.y.y.y.y.y.y.y.y.t.i.>.O H h.D D a 4.p.i.i.u.4.y ] $.{ r @.8.<.#.r M X.n s ,.i.i.5.] F F k ! N [ u.t.y.y.y.y.y.y.y.y.y.y.y.y.",
"y.y.y.y.y.y.y.y.t.y.t.y.y.l 4 n.'.`.c.- [ #.] n 7 c.A.^ 6 A.) D ` / A.N.d.K.A.= v u . / ].^.~.' , O.i.w.t.t.t.t.u.t.y.y.y.y.y.y.",
"y.y.y.y.y.y.y.y.t.y.u.u.q.u X l.[.[.'.E.M.f.S.d.Q Q.j.j.` ` I.V.B.`.[.E b.n.E Q L.M.B.P.j.Q.`.` # %.u.u.u.t.u.t.y.t.y.t.y.y.y.y.",
"y.y.y.y.y.y.y.t.u.t.8.@.q d.B.[.~.h.n.^.^.'.B.$ J b.P.8 ^.K E W.J Q [.W G.[.J A '.[.[.G.  J 8 Q K A a $.t.t.t.t.t.u.t.t.y.y.y.y.",
"y.y.y.y.y.y.y.u.-.k U Q K.[.[.'.V.  ' K A Z ' H.b.[.B.Q ].P.~.P.8 W.R.4 K [.G.$ P v.~.'.j.S.c.' E.`.S.K I l g X.u.t.t.u.y.y.y.y.",
"y.y.y.y.y.y.y.u.a B ~ v.~.[.G.K $ b.`.W.k.J [.U.g.I.8 ~.n.G.[.E S [.E $ 7 ^.b.8 E + ' [.`.F.v.A ' [.^.B.~ B 4 4.u.t.y.y.y.y.y.y.",
"y.y.y.t.y.y.t.u.X.< : % 7 F.^._.N.~ b.[.v.J '.Y.v.8 j.[.W v.[.A Z `.V.Z E W.$ b.[.E.J ^.P.2 ' v.~.U.Z # : < *.i.t.y.y.y.y.y.y.y.",
"y.y.u.t.u.t.u.t.t.2. .0 K J Z P G.Q._ `.Q b.[.U.8 v.P.G.Z B.G.v.J Y.Q A ~.R.v.W.!.K j.[.'.^.V.W E 4 + x O.*.u.t.y.y.y.y.y.y.y.y.",
"y.y.t.t.t.t.u.t.t.p.7., I.[.n.8   E R.[.B.A K Z.^.v.$ K Z ^ J 4 Z E 8 j.b.v._ v.4 + U.[.L.J   A m.F.^ s e.p.t.t.y.y.y.y.y.y.y.y.",
"y.y.y.y.y.y.y.y.t.u.>., I.[.[.~.s.+ + P.[.R.` 4 A X W j.j.v.K W ! F.K E 7 _ K ' ` ~.[.V.+ 4 n.`.[.[.[.Y y i.t.u.y.y.y.y.y.y.y.y.",
"y.y.y.y.y.y.y.y.t.u.>., I.[.^.'.[.I.K 8 v.G.W.J + S G.G.F.l.H.v.F.' F._ W G.K E !.V._ $ _ ~.[.]._.'.R.B v u.t.t.y.y.y.y.y.y.y.y.",
"y.y.y.y.y.y.y.y.t.u.>., Y.[._.`.`.[.].B.4   8 v.^ ' g.v.~ W _ K _ J ^ Z j.M.S 7 4   S J.[.'.`.`.`.[.W # :.i.t.y.y.y.y.y.y.y.y.y.",
"y.y.y.y.y.y.y.y.t.i.>.> C.[.`._.`.`.`.[.^.g.8 g.U 8 $ K S.B.A % Z B.G.E S K 8 $ Z C.[.[.`.`.`.`.[.Z.: x u.t.y.y.y.y.y.y.y.y.y.y.",
"y.y.y.y.y.y.y.y.y.u.6.6 8 v._.[.`.`.`.(.].[.B.+ 4 $ _ '.[.[.U.@ G.[.[.'.' + 8 g.^.[.G.G.'.`.`.'.^.S 4 ,.u.y.u.y.y.y.y.y.y.y.y.y.",
"y.y.y.y.y.y.y.y.y.t.u.{ 1 # S I.'.`.].`.`.'.~.V $ k.[.].`.'.R.4 I.[.^.].'.F.I.[.R.W X ` [.`.`.[.g.X X.p.u.t.t.t.y.y.y.y.y.y.y.y.",
"y.y.y.y.y.y.y.y.u.y.t.u.2.l + k.[.^.`.`.`.'.~.8 g.[.`.`.`.[.R.= I.[.`.`.`.[.[.n.8 $ V W.'.`.[.Q.K T F t ,.u.t.y.y.y.y.y.y.y.y.y.",
"y.y.y.y.y.y.y.y.t.t.u.t.p.r.@ B.[.[.[.`.`.'.~.8 U.[.`.`.`.'.R., I.[.`.`.].).Q $ $ 7 I.[.`.`.].^.].'.^.A.V %.i.t.y.y.y.y.y.y.y.y.",
"y.y.y.y.y.y.y.y.t.t.t.u.q.w d.[.~.' R.[.].'.~.5 P.[.`.`.`.[.R.4 I.[.`.`.[.g.+ $ P ~.[.).`.`.`.].].`.`.[.P.4 4.u.t.y.y.y.y.y.y.y.",
"y.y.y.y.y.y.y.y.y.t.i.5.9 z.[.].].J , v.).'.!.5 P.[._.`.`.'.R.= I.[.`.'.R.$ 7 B.[.L.G.[.[.'.[.`.`.`.`.`.[.R y p.t.y.y.y.y.y.y.y.",
"y.y.y.y.y.y.t.y.t.i.,.; M.[.`.^.[.l.@ + b.[.~.& K.[.).`.`.[.R., I.[.`.].^.V.^.~.K k.'.P.` K B.'.`.`.`.`.[.) d u.t.y.y.y.y.y.y.y.",
"y.y.y.y.y.y.u.t.u.>.8 H.[.`.`.`.[.F.2 4 j.[.].j.I.'.[.'.`.'.Q., I.[.`.`.`.[.G.$ k.[.' $ : @ J ].`.].`.`.[.R d y.y.y.y.y.y.y.y.y.",
"y.y.y.y.y.y.t.u.,.3 K.[.`.`.`./.[.n.$ , v.[.`.[.].[.I.W.'.[.R.$ v.[.`.^.[.N.+ U '.K o 5 +.9 g.[.`.`.`.'.W.3 M i.t.y.y.y.y.y.y.y.",
"y.y.y.y.y.y.t.i.r ( [.(.`.`.`.[.~.Z 5 = j.[.`.^.[.G.$ _ [.'.R.4 8 J ` [.C.$ $ ' s.o s e.>.V ~.'.`.`.(.[.g.# :.i.t.y.y.y.y.y.y.y.",
"y.y.y.y.t.t.u.e.* v.[.`.`.`.'.^.L O o.9 z.[.(.[.B.4 $ K `.[.Y.8 8 4 W.Q.4 8 f 7 3 g e.5.$ H.[.`.`.(.[.I.2 g t.y.t.y.y.y.y.y.y.y.",
"y.y.y.y.t.t.u.e.; v.[.`.`.].'.Q : M e.* z.[.'.v.% 5 g C ~.[.Y.8 @ M.[.E O =.M 1 8 7.5.* M.[.(.].`.[.~.A > -.i.t.y.y.y.y.y.y.y.y.",
"y.y.y.y.t.t.u.w.* z.[.`.`.[.g.# j w.e.- _ ).g.# 6 2.*.< I.[.R.4 A `.~.6 b p.M < M #.5 S.[.`.`.`.[.^.L : ..u.t.y.y.y.y.y.y.y.y.y.",
"y.y.y.y.u.t.u.e.; v.[.^.[.n.# f 5.u.t.s 1 f > 5 2.p.2.# V.[.R.$ ` [.(.H t 6.t # g ^ E.[.`.`.(.[.W.J : x t.u.y.y.y.y.y.y.y.y.y.y.",
"y.y.y.y.u.t.y.e.* h.[.[.Z.$ 8 3.i.t.u.,.g 8 j 4.i.y.0.@ j.[.R.+ v.[.'.!.k.^ _ n.T.[.'._.`.`.[.U.h : x w.u.t.y.y.y.y.y.y.y.y.y.y.",
"y.y.y.y.t.t.t.t.p C m.b.8 3 -.i.t.y.t.u.w.4.t.u.t.u.t.9 ! [.R.$ g.[.).'.[.[.[.[.'.`.).`.[.'.v.= < M t.u.t.y.y.y.y.y.y.y.y.y.y.y.",
"y.y.y.y.t.y.t.u.{ < # # 1 &.i.t.y.y.y.t.y.u.u.t.y.t.u.v G '.R.4 A ~.[.^.^.(.(.^.).].[.[.P.K # 3 O.u.u.t.y.y.y.y.y.y.y.y.y.y.y.y.",
"y.y.y.y.y.y.t.u.u.=.x c -.u.t.y.y.y.y.y.y.t.t.t.t.t.i.[ 1 ~.Q.8 , W ^.[.[.[.[.[.[.`.P.Q & : j 2.i.t.t.t.y.y.y.y.y.y.y.y.y.y.y.y.",
"y.y.y.y.y.y.t.y.t.i.i.u.u.y.y.y.y.y.y.y.y.y.y.y.t.t.i.:.# I.W.4 7 > A v.G.I.U.F.j.J $ # 5 O.w.u.t.y.t.y.y.y.y.y.y.y.y.y.y.y.y.y.",
"y.y.y.y.y.t.t.u.y.t.t.t.t.y.y.y.y.y.y.y.y.y.y.y.u.t.u.,., J K 1 &.b > o , 2 $ # o > h o.5.i.u.t.y.y.y.y.y.y.y.y.y.y.y.y.y.y.y.y.",
"y.y.y.y.y.y.y.y.y.y.y.y.y.y.y.y.y.y.y.y.y.y.y.y.y.y.y.y.c < : s t.u.;.M s g j x X.;.q.i.u.t.y.y.y.y.y.y.y.y.y.y.y.y.y.y.y.t.u.t.",
"y.y.y.y.y.y.y.y.y.y.y.y.y.y.y.y.y.y.y.y.y.y.y.y.y.y.y.u.t.*.&.w.u.y.i.u.y.w.t.u.i.u.u.t.t.y.y.y.y.y.y.y.y.y.y.y.y.y.y.y.y.y.u.t.",
"y.y.y.y.y.y.y.y.y.y.y.y.y.y.y.y.y.y.y.y.y.y.y.y.y.y.y.y.y.i.i.y.t.t.t.t.y.u.u.t.t.t.t.y.y.y.y.y.y.y.y.y.y.y.y.y.y.y.y.y.y.t.t.t.",
"y.y.y.y.y.y.y.y.y.y.y.y.y.y.y.y.y.y.y.y.y.y.y.y.y.y.y.y.y.t.t.y.y.t.y.y.t.t.t.y.y.y.y.y.y.y.y.y.y.y.y.y.y.y.y.y.y.y.y.y.y.t.u.t.",
"y.y.y.y.y.y.y.y.y.y.y.y.y.y.y.y.y.y.y.y.y.y.y.y.y.y.y.y.y.y.y.y.y.y.y.y.y.y.y.y.y.y.y.y.y.y.y.y.y.y.y.y.y.y.y.y.y.y.y.y.y.y.y.y.",
"y.y.y.y.y.y.y.y.y.y.y.y.y.y.y.y.y.y.y.y.y.y.y.y.y.y.y.y.y.y.y.y.y.y.y.y.y.y.y.y.y.y.y.y.y.y.y.y.y.y.y.y.y.y.y.y.y.y.y.y.y.y.y.y.",
"y.y.y.y.y.y.y.y.y.y.y.y.y.y.y.y.y.y.y.y.y.y.y.y.y.y.y.y.y.y.y.y.y.y.y.y.y.y.y.y.y.y.y.y.y.y.y.y.y.y.y.y.y.y.y.y.y.y.y.y.y.y.y.y.",
"y.y.y.y.y.y.y.y.y.y.y.y.y.y.y.y.y.y.y.y.y.y.y.y.y.y.y.y.y.y.y.y.y.y.y.y.y.y.y.y.y.y.y.y.y.y.y.y.y.y.y.y.y.y.y.y.y.y.y.y.y.y.y.y.",
"y.y.y.y.y.y.y.y.y.y.y.y.y.y.y.y.y.y.y.y.y.y.y.y.y.y.y.y.y.y.y.y.y.y.y.y.y.y.y.y.y.y.y.y.y.y.y.y.y.y.y.y.y.y.y.y.y.y.y.y.y.y.y.y.",
"y.y.y.y.y.y.y.y.y.y.y.y.y.y.y.y.y.y.y.y.y.y.y.y.y.y.y.y.y.y.y.y.y.y.y.y.y.y.y.y.y.y.y.y.y.y.y.y.y.y.y.y.y.y.y.y.y.y.y.y.y.y.y.y.",
"y.y.y.y.y.y.y.y.y.y.y.y.y.y.y.y.y.y.y.y.y.y.y.y.y.y.y.y.y.y.y.y.y.y.y.y.y.y.y.y.y.y.y.y.y.y.y.y.y.y.y.y.y.y.y.y.y.y.y.y.y.y.y.y.",
"y.y.y.y.y.y.y.y.y.y.y.y.y.y.y.y.y.y.y.y.y.y.y.y.y.y.y.y.y.y.y.y.y.y.y.y.y.y.y.y.y.y.y.y.y.y.y.y.y.y.y.y.y.y.y.y.y.y.y.y.y.y.y.y.",
"y.y.y.y.y.y.y.y.y.y.y.y.y.y.y.y.y.y.y.y.y.y.y.y.y.y.y.y.y.y.y.y.y.y.y.y.y.y.y.y.y.y.y.y.y.y.y.y.y.y.y.y.y.y.y.y.y.y.y.y.y.y.y.y.",
"y.y.y.y.y.y.y.y.y.y.y.y.y.y.y.y.y.y.y.y.y.y.y.y.y.y.y.y.y.y.y.y.y.y.y.y.y.y.y.y.y.y.y.y.y.y.y.y.y.y.y.y.y.y.y.y.y.y.y.y.y.y.y.y.",
"y.y.y.y.y.y.y.y.y.y.y.y.y.y.y.y.y.y.y.y.y.y.y.y.y.y.y.y.y.y.y.y.y.y.y.y.y.y.y.y.y.y.y.y.y.y.y.y.y.y.y.y.y.y.y.y.y.y.y.y.y.y.y.y.",
"y.y.y.y.y.y.y.y.y.y.y.y.y.y.y.y.y.y.y.y.y.y.y.y.y.y.y.y.y.y.y.y.y.y.y.y.y.y.y.y.y.y.y.y.y.y.y.y.y.y.y.y.y.y.y.y.y.y.y.y.y.y.y.y."
};
