/* XPM */
static char *output[] = {
/* columns rows colors chars-per-pixel */
"64 64 248 2 ",
"   c #0D0907",
".  c #150B09",
"X  c #0B181C",
"o  c #12191E",
"O  c #1C191E",
"+  c #161517",
"@  c #1C130E",
"#  c #280809",
"$  c #380A0D",
"%  c #390C11",
"&  c #271917",
"*  c #371A1A",
"=  c #29150D",
"-  c #39241C",
";  c #2B221D",
":  c #1E1D24",
">  c #1A1B24",
",  c #211E26",
"<  c #221F28",
"1  c #2B1C21",
"2  c #391C23",
"3  c #1C2128",
"4  c #232027",
"5  c #25232B",
"6  c #28252D",
"7  c #2B272A",
"8  c #382728",
"9  c #292730",
"0  c #2C2B33",
"q  c #2A2A36",
"w  c #342C37",
"e  c #34323C",
"r  c #3A353D",
"t  c #383337",
"y  c #2B303A",
"u  c #430B0F",
"i  c #4B0E14",
"p  c #440D13",
"a  c #540E15",
"s  c #491413",
"d  c #5B111A",
"f  c #571317",
"g  c #42190D",
"h  c #6C151D",
"j  c #64141C",
"k  c #73161F",
"l  c #690B17",
"z  c #48251A",
"x  c #572B17",
"c  c #4F3017",
"v  c #63331D",
"b  c #471C24",
"n  c #5A1B25",
"m  c #691924",
"M  c #721620",
"N  c #751923",
"B  c #7C1A24",
"V  c #731C29",
"C  c #7B1C2A",
"Z  c #7D1622",
"A  c #791E31",
"S  c #5D212A",
"D  c #562725",
"F  c #48352B",
"G  c #593628",
"H  c #473636",
"J  c #553C35",
"K  c #4B2A32",
"L  c #692229",
"P  c #73222B",
"I  c #79232C",
"U  c #693B25",
"Y  c #673D32",
"T  c #6F2B36",
"R  c #584336",
"E  c #544234",
"W  c #69442B",
"Q  c #75452A",
"!  c #694736",
"~  c #7B4C3A",
"^  c #764836",
"/  c #6B543B",
"(  c #7A573B",
")  c #78653D",
"_  c #64461E",
"`  c #393743",
"'  c #3C3A44",
"]  c #3C3B4A",
"[  c #353443",
"{  c #403D4B",
"}  c #443B46",
"|  c #593946",
" . c #6C354B",
".. c #45424C",
"X. c #4A464B",
"o. c #574A48",
"O. c #5E534A",
"+. c #454251",
"@. c #4A4553",
"#. c #4C4A55",
"$. c #4D4C5B",
"%. c #4C4759",
"&. c #514D5C",
"*. c #554857",
"=. c #55535B",
"-. c #684942",
";. c #68584B",
":. c #775547",
">. c #675755",
",. c #735052",
"<. c #7D6744",
"1. c #7C6757",
"2. c #6C6454",
"3. c #4F5061",
"4. c #525263",
"5. c #5B5A67",
"6. c #535164",
"7. c #625E6B",
"8. c #685967",
"9. c #5E6170",
"0. c #66636C",
"q. c #656473",
"w. c #696674",
"e. c #6B6A78",
"r. c #716D7B",
"t. c #776576",
"y. c #77757B",
"u. c #736E6D",
"i. c #831B26",
"p. c #841D2A",
"a. c #8B1E2C",
"s. c #891D26",
"d. c #931E2A",
"f. c #8B212D",
"g. c #83212D",
"h. c #94222E",
"j. c #9A222E",
"k. c #882434",
"l. c #942331",
"z. c #9B2433",
"x. c #9D2836",
"c. c #982839",
"v. c #A52B3A",
"b. c #AA2D3B",
"n. c #A42835",
"m. c #AE313E",
"M. c #B1303E",
"N. c #84543C",
"B. c #8B533D",
"V. c #82683D",
"C. c #8A334D",
"Z. c #942E49",
"A. c #A52D45",
"S. c #B23852",
"D. c #B83A60",
"F. c #885B47",
"G. c #8E5852",
"H. c #886649",
"J. c #946349",
"K. c #88754A",
"L. c #896658",
"P. c #966956",
"I. c #8A7A56",
"U. c #98735C",
"Y. c #937F4B",
"T. c #A2735C",
"R. c #A2695E",
"E. c #845068",
"W. c #9C7362",
"Q. c #91736C",
"!. c #8F726B",
"~. c #A37564",
"^. c #AA7D6B",
"/. c #A67A67",
"(. c #B3796A",
"). c #AE7771",
"_. c #968558",
"`. c #8E8057",
"'. c #978B66",
"]. c #958E71",
"[. c #A8846C",
"{. c #A4966B",
"}. c #AC8575",
"|. c #B68A78",
" X c #A89A77",
".X c #B48B73",
"XX c #B6A779",
"oX c #B1A272",
"OX c #A28E5D",
"+X c #C28C7B",
"@X c #747383",
"#X c #7D7A8B",
"$X c #797687",
"%X c #737386",
"&X c #837D8B",
"*X c #817E92",
"=X c #986F86",
"-X c #7E8497",
";X c #908A88",
":X c #868697",
">X c #949296",
",X c #908C8B",
"<X c #B88E80",
"1X c #BB9383",
"2X c #BB9784",
"3X c #AC978C",
"4X c #B7AA86",
"5X c #BEB28B",
"6X c #B8AD99",
"7X c #BCB495",
"8X c #AAA38D",
"9X c #9799AB",
"0X c #999CB2",
"qX c #8B8FA5",
"wX c #9DA0B6",
"eX c #A8A4A7",
"rX c #B4ABA2",
"tX c #BAB5A7",
"yX c #A3A6BB",
"uX c #A5A9BD",
"iX c #B9B7B8",
"pX c #B0AFB6",
"aX c #A09BB3",
"sX c #C69A89",
"dX c #C99D91",
"fX c #C6B88A",
"gX c #D3A79B",
"hX c #C5B998",
"jX c #C6A892",
"kX c #C6BAA3",
"lX c #D6B2A8",
"zX c #E0B8B1",
"xX c #CCC19B",
"cX c #CCC4AB",
"vX c #CAC2A6",
"bX c #D2C8A9",
"nX c #CAC4B6",
"mX c #D4CAB8",
"MX c #D7D1BD",
"NX c #A9ADC2",
"BX c #ADB0C6",
"VX c #B4B6C8",
"CX c #C9C8C8",
"ZX c #D1CDC9",
"AX c #D9D3C7",
"SX c #D7D5D5",
"DX c #CFCED1",
"FX c #E0D9CF",
/* pixels */
", & : : , , , , , 1 < 4 < < < 4 4 4 4 4 4 4 1 4 5 4 4 4 4 4 4 4 4 4 4 7 4 4 4 4 4 7 < 5 7 < 5 7 5 < 7 1 6 6 < 6 6 6 7 < < < 6 5 ",
", , : , , , , , , , < 4 4 4 5 1 4 1 4 5 4 5 5 5 5 4 7 5 4 4 5 4 4 4 4 4 7 4 5 4 5 5 7 < 7 5 5 6 5 7 6 6 6 1 7 1 6 < 5 6 5 6 7 5 ",
"& , , : , , 1 , , , , , 4 4 4 4 4 4 4 4 4 4 7 4 7 4 < 4 4 4 4 4 4 4 7 4 4 6 5 4 4 6 6 4 < 5 < 1 < 7 6 5 6 6 9 1 7 9 6 4 < < < 5 ",
": : , , , , , < , , , 4 < 4 < 4 4 < 7 4 4 7 1 4 4 4 4 4 4 4 4 4 5 , O : 0 & 4 7 6 4 4 1 < 7 7 5 7 < < 7 < 6 6 7 < 1 6 < 7 7 5 5 ",
": : > , , , < < , 4 < < 4 4 4 5 4 4 5 4 4 4 4 4 4 4 4 4 4 4 : 4 > e r w.y.] 0 4 4 4 4 7 1 5 5 1 < 6 7 < 6 5 6 < < 6 < 9 < 6 6 < ",
": : & , , , , , 4 4 , < 5 1 1 < 4 4 < < 4 < 4 < 4 4 4 4 5 9 0 e 7.eXZXSXiXCX5.+ 7 4 5 4 4 5 6 7 1 6 < 5 < 6 9 < 6 < 9 < < 6 6 6 ",
": : , , , , , < , 4 < < 4 1 ` #.X.' ' } *...` &.} , 4 4 7 u.u.eXSXDXSXFXSXFXrX} 9 4 5 4 5 5 5 5 9 < 6 6 6 6 < 9 6 < < 6 6 < < 6 ",
", , : , > < < < , , < < 5 < =.$Xt.w.w.0.@Xr.7.&X8., 4 , 0.9XDXDXSXAXFXAXAXbXZXiX$X4 4 4 6 4 < 5 6 6 6 < 6 < 9 < < 9 9 < 6 9 < 6 ",
": , , : , , , 4 4 4 4 4 4 O 7.$Xr.$Xt.e.#Xr.0.&X7.7 5 0 pXDXDXZXmXAXMXMXMXbXmXZXCXr.7 < 5 5 5 7 6 5 6 6 6 5 5 5 6 6 6 < 9 < 9 6 ",
"O , O , , , , 4 4 4 , 4 4 , 7.&Xr.$Xy.y.$Xr.0.#X5.#.X.-XCXDXZXmXmXhXhXbXxXMXmXAXSXiX=., 5 4 5 4 < 6 < 6 5 5 5 6 9 < 6 < < 9 6 < ",
", , , , , , 4 , & 4 4 4 4 : 5.&Xr.r.&X&X&Xr.q.#X0...>XDXCXCXnXnXmXxXhXxXfXmXMXnXZXSX,X, < 4 5 4 6 5 6 6 6 < 5 5 < 9 < 9 9 < 6 < ",
", , , , , , , , 4 4 4 4 < , ` *.#.@.#.#.8.@.{ 7...e eXDXCXmXxXxXbXfXfXhXvXxXvXnXnXDXiX5.: 6 5 5 6 5 < 6 < 6 5 5 9 < 9 < < 9 < 9 ",
"O , , O , , 1 4 , , , , 9 [ r 6 7 ' y ' e r t ' 6 5.CXDXnXvX5X4XXXXXXXxXbXxXxXkXnXCXSXaX7 , 5 5 < 6 6 < 5 5 5 6 5 5 5 5 9 9 < 9 ",
", , , , , < 4 4 < 4 4 > ..y.@Xr ..$X5.@X7.q.7.e.5.eXCXCXtX7X5X{.XXXX7XbXvXfXxXxXkXnXCXpX' , 5 5 < 6 6 < 5 9 < 5 5 5 5 9 6 < 9 < ",
": > , , , , < 4 < < < & X.:X&X5.w.w.7.#Xr.0.0.9.y.VXCXnXkX5XoX4XjXcXmXMXbXxXXXXXkXtXCXZXu.: 6 5 6 < 6 6 < 5 9 < 9 5 6 K w 5 6 < ",
", & , , < < , , < < < , { :X*Xw.r.r.0.-Xq.q.q.e.:XCXnX4X5XoXXXkXmXbXAXMXbXfXXXxX7X6XtXCXpXr , 4 < < 6 < 9 < < 9 < < 8  .w < 6 9 ",
", > , , , , < , , , 4 : ..:X:Xw.w.&Xw.%Xw.6.7.*XuXCXtXOXOXXXkXmXnXhXvXbXbXxXXXxX7X7X6XnXaX{ < 9 6 9 9 6 9 q q q q , w  .w < 6 6 ",
", , , , , , , , , , 4 & ' w.7.7.w.w.&XQ.5.w.7.9XCXnXvX{.`.tXhXkXjXhX X4XxXfXoXXX5X8XtXiXDX>X2 | 6.@Xw.6.@.q.e.q.$X` w } w < 6 5 ",
", O , , , , , , , < < < 6 0 0 0 w q L.-.9 r w #XpXiXhX{.7X7XoX4X4XjX2XjXxXfXXXXX7X4X XrXiX,X| t.%X%X*X*X@X:X@X-X#X4.w *.H 5 5 5 ",
", , , , , < < , , , < < , , , , : > R.H > , , , >XnXtX7X7X{.'.2XsX|.sXhXXXXX5XXXXX4X8XrXCX=XT %X$X*X*X:XqX#X$.:X:X%.K &.} 5 9 5 ",
", , , < , , 1 , , < , < < < < 1 , w }.K > < < 4 >XiX7XhX4X) G G ~.W.! ! H.`.oXoXoXoX8XrXiX,X,.*XqX*X%X$X*X*Xq.:X:X{ K *.| < 9 < ",
"> : , , < , , , < < , , < < ` [ q =..Xw [ 4 e ' >XrX4X7X[.! Y g P.R.s Y W ) {.{.OX X'.8XrX>X8.q.$Xw.%X5.&.$X#Xq.q.$.J >.J < 9 9 ",
", , , , , , , , < < < < < 9 &.{ 7.3XW.e %.w %.{ >XrX6X7XK.U -.z /.).G L.Q Q `.) `.{.'.].eX>XX.7 [ [ } w q ' ' w e 0 o.,.O.< < 9 ",
", , , , , , , , 1 < < < < 9 { 8.jXlXG.w &.9 { { ,XtX8X X! c z L.sX+X~.F W / K.`.) K.].].8X>X7 : < < < < < < 4 5 6 4 *.>.*.< 5 5 ",
"> , , , 5 : < < 5 5 : 5 > H rXkXlXdX-.[ 6.9 { { >X6X].I.- ! jXgXdX+XgXlX<XF.L.'.`._.{.].,X>X' 4 9 5 5 5 5 5 9 5 6 5 | o.| < 9 6 ",
", , , , : < 5 : 5 : < < > -.jXlXjXsXL.q &.w { &.;X3X_.N.c }.lX[.Y F.gXzXzX^./ I._.OX'.].eX>X' 5 3 5 5 9 5 5 5 5 5 5 w } t < 5 5 ",
", : , , , < : 5 5 < < : 7 Y ^ gX<X~.Y 9 e < e [ -X].Y.Q c |.lXR.G Y sXlXgX.X:.I.<.`.`.].8X-X3 4 5 5 5 5 5 5 5 9 5 5 9 q 9 5 9 5 ",
", , , , < < 5 < , q ] q } F.s F.).).G.` [ e r , y. X( ( W (.dX|.sX<XgXgXsX[.G ].K.`.`.1.].3.: 7 3 9 5 9 3 9 5 5 5 5 5 5 5 5 5 9 ",
", : : 4 < , , < , [ 6.] o.G.# * ).Y :.*.+.@.$.5 u.,X/ :.R U.}.R.(./..XsX|.P.c L.`.K.'.].,XX.: 5 9 9 6 3 5 5 5 9 5 5 5 9 5 5 5 5 ",
", : , < , 4 , 5 , ` 6.] -.).* = b g G *...@.&.w y.].W R W U.L.G.).G.F.[..XF.- W <._ <.I.].0.5 5 5 3 6 9 9 5 9 3 5 9 5 3 5 5 5 9 ",
", : , , 5 , , < , [ @.[ >.|.D g * Y J { { @.&.r 0.y.W c x L.[.sX+XdX.X/.|./ z c c W <.`.y.' 5 5 6 5 6 3 5 5 3 9 9 3 3 9 5 5 9 5 ",
": 4 4 , , , , 4 , [ @.e 1.).Y G.~.P.H e @.{ %.9 #.u.E - z 1.W.|.R.dXsX^.[.F z v z E ) 2.u.' 3 7 3 5 5 6 5 5 9 5 5 9 q 5 5 5 5 9 ",
"4 : 3 4 4 4 4 , < 9 [ 9 :.(.P.R.R.N.8 q ' e y 5 e =.o.- z F E ! -.L.W.U.<.- :.B._ F / 2.3.0 5 5 5 5 5 5 9 6 5 6 6 3 3 9 6 3 9 9 ",
": , , 4 : , 3 4 < < < > -.(..X~.J.x < < , < < 5 3 X.O.F 8 & 4 7 1 8 F ( J @ ^ ~ / / ;.2.=.3 5 5 5 5 5 5 3 6 3 9 6 9 6 6 6 6 3 6 ",
": 3 4 : 4 5 : 4 < < < > -.(.P.F.W 8 < 5 < < 4 5 4 ' X.R F @ + . . + & 8 - = = * 1.].O.u.X.5 5 3 6 3 5 6 3 9 5 5 6 9 6 9 6 9 9 6 ",
", , , : , 3 5 , < < > H P.F.~ U x 1 < < 5 < 4 5 4 5 X.;.E .       . . @ . - - - / ].O.X.t 3 6 6 6 6 7 3 5 5 9 9 6 3 6 3 6 3 6 9 ",
": , 4 , 4 5 3 4 < 4 > o.^.^ ~ x * , < < 4 4 5 5 4 5 X.O.F .               E = z / 2.O.y 5 5 5 5 6 6 6 6 5 3 9 9 5 5 5 5 3 6 9 3 ",
", : , 3 : 4 , < < < > 1.sXP.N.x , , 4 < 4 5 5 3 4 7 y =.J F     .       = :.. E ;.O.E 3 5 5 5 5 6 3 5 5 6 9 3 5 9 5 q 5 9 9 9 9 ",
"3 : , 4 , 4 4 , 4 > w }.|.L.W z 4 4 5 < 5 4 4 5 5 4 0 =.E -.8   . @ @ & ! :.. E / O.` 5 9 5 q 5 9 5 6 5 6 9 5 5 9 5 9 5 q 3 9 9 ",
", : < , 3 , 4 3 4 > *.<X~.F.U * 3 4 , 5 4 4 4 4 4 5 4 r } :.:.2 = = z R W.H.@ E 8 o.0 > 5 3 3 : 3 5 3 5 3 5 5 5 5 5 5 5 3 5 5 5 ",
", : 4 : 4 , 4 4 4 3 !.}.U.:.z , 9 , < < 6 5 5 , < < < q ] ,.W.! W G / U.[.:.- - t ' ' ' ] ] [ [ ] ] ] ' [ ] ] ' [ [ ` [ [ [ [ [ ",
": , : , 3 , , , > H }.^.G.U * 4 < , < 5 < < 5 5 9 < 5 < w ,.~.L.F.H.P.[./.F.F 5 r @.$.$.%.%.3.3.$.$.3.3.$.3.3.3.3.3.3.3.4.3.6.6.",
": 3 , , , , : 4 > >.<X~.F.D , 4 < < < < < < < , < < , < n F.R.U.P.T.T.}./.H.D 0 6 6 5 5 9 9 9 9 9 9 0 9 q 9 y 0 y q 0 y 0 y y y ",
", : , , , 3 4 , 0 Q.<XW.~ z , 4 < 5 < 5 5 > < w  .2 K  .m :.).W..X[.[.}.T.N.j S , < 5 5 5 5 < 5 5 5 3 5 5 5 3 5 5 5 5 5 7 5 5 9 ",
": : , : : 4 5 > o.<X}.P.T 2 < < < < < < ,  .C.A.A.C.A A n n W.sX.X|.sX|.U.f j g.L 9 < 9 5 5 5 5 5 5 5 9 5 5 5 5 5 9 9 3 9 9 5 9 ",
": 5 : < 4 : , > !.1X}.P.Y 1 < < < < < <  .D.Z.A.c.k.A A m i V R.~..X|.P.j f I f.l.c.K : 5 5 5 9 5 5 5 5 q 3 9 5 5 5 9 9 5 5 9 9 ",
": : 3 , 4 , > r <X3X}.J.D 4 < < 9 > < C.A.Z.k.Z.k.A A A V m m l l h l a h P g.x.l.z.c.8 3 < 5 5 5 5 9 5 5 9 3 5 5 5 9 9 5 6 9 9 ",
": 5 4 : , , o >.sX1X^.F.z , < < > K Z.Z.m A a.i.p.C Z A k.k.V A I C g.k.k.c.v.v.v.z.v.Z.[ 9 5 5 q 5 5 5 5 9 5 9 9 3 3 5 5 6 9 3 ",
": 3 , , : : < !.1X<X^.N.* 3 4 q | d m A m V a.i.i.p.k.A.c.n.a.a.c.c.c.x.x.z.b.m.n.b.b.M.D.E.y 9.#X+.+.%X%Xe.%X] [ e.9.9.%X[ 3 q ",
": : : : < > r <X<X<XR.B.b 3 [  .A d $ j M a.a.a.a.a.l.A.x.c.x.a.v.m.m.n.c.n.l.S f.b.A.A.A.D.| qXBX5.%XBXuXuXuX4.%XNXyXyXyX3.3 9 ",
": , < : : > O.<X<X}.U.Y 2 <  .Z.n d i m i.p.a.l.l.l.l.A.x.v.b.l.v.m.A.n.l.b.P S P n.v.b.v.k.Z.yXuX$.%XNXwXwXwX3.qXNXyXyXyX..5 9 ",
": : < 3 : > L.<X<X[.P.U S  .Z p.A j a j Z i.a.z.z.z.l.z.n.z.n.n.x.m.M.l.x.x.D b D j.h.v.z.g.a.=XuX] ] 3.=.=.#.$.uXuX%X9.9.y 5 9 ",
": < < : : 9 W.<X}.^.G.Q ,.Z.m h C M j i Z p.p.l.z.z.l.c.z.h.l.z.z.n.n.m.m.x.I n L h.h.n.j.f.i.E.0Xy ] +.{ +.y 3.BX9Xy 3 9 5 q 5 ",
": : : : > t ).}.}.^.F.^ R.m h h Z B B p M i.C l.l.z.f.c.v.g.d.n.b.n.n.M.v.n.x.g.m f.h.h.k g.k Z.-X$.0X9X9XwXe.9.VXqX7 6 7 5 9 9 ",
": : 3 < > o.^.^.^.~.J.~ U.C.M C B B a.d M i.N l.z.V O p.S & k.I L P I f.m.M.n.z.j.h.j.g.B g.N c.5.9.NXuXuXBXe.%XVX$X3 7 9 5 9 9 ",
": < < , > L.^./.^./.L.N.[.R.h M M M Z l h i.N h.z.2 O V , , V o o o X I L D k.l.h.h.j.f.f.g.N l.| %XNX9X-X-X3.-XVXq.3 q 5 5 6 9 ",
": , > : 7 W./.T.~.~.F.B././.j h j j M d a B m d.I > 8 m o 2 C b * 1 2 V O o o & S h.z.g.h.B B f.K -XVXy.0 y y 0XBX$.o 6 9 6 9 3 ",
"> , , > H /.R.R.T.P.:.N.T.(.L d a a M i $ p.M j.m X m m X n p.p.f.f.n.L o 1 2 o b j.h.B f.k k s.T qXVX9.: 3 { yXuX9.] ..9 9 9 9 ",
", , , o o.T.P.P.J.F.W N.T.T.U d i a l u # Z M h.b > I 2 o P * O b * k.S X L b.I m N h.B i.B k k T 0XBX$.4 4 3.NXuX0X0X:Xy 7 9 9 ",
"> : , > ,.T.J.V.B.Q U J.B.V.L i u p i i # M j p.: 1 p.: & V O o o X L b X V z.l.f.j h p.h k h k A 0XuX' 4 , #.NXBXuXVX9Xy 3 9 9 ",
", : : > H.T.B.N.N.v N.V.B.Q v u $ u $ $ . d M n o b V X b m > * n b A & O l.l.g.p.p.a j f k N i.C t.%Xq 5 5 y %X:X:X>Xu.7 9 6 9 ",
"> , : > ( J.N.N.v v N.B.B.N.x a p u # $ . i j % o n b X m b X S n.n.I X 2 x.h.f.a.B f u a M i.p.N K 5 : 3 5 : 7 y t y y 7 9 9 7 ",
": : , > v B.V.N.v U N.N.N.Q x s i p $ # . u f & O O o O B 1 > V a.j.n X D z.h.a.p.k a $ i k B B p.K y 4.' y #.' 9 +.' 5 9 9 5 9 ",
": : : : = _ N.g.v v v U v v x g p p $ # . p f % + : O * V o 1 l.a.d.* o 1 n I p.i.h i # f N i.a.p.S 4.yX-X5.wX-X$.0X-Xy 3 q 3 9 "
};
