/* XPM */
static char *output[] = {
/* columns rows colors chars-per-pixel */
"64 64 225 2 ",
"   c #030303",
".  c #0C0A0C",
"X  c #090607",
"o  c #130E0E",
"O  c #1D0E0E",
"+  c #140F10",
"@  c #141213",
"#  c #1A1314",
"$  c #15161A",
"%  c #1C1719",
"&  c #16191C",
"*  c #1A1A1D",
"=  c #151917",
"-  c #0F1010",
";  c #251B1B",
":  c #210D0B",
">  c #1A211E",
",  c #22231E",
"<  c #1C1E22",
"1  c #151A20",
"2  c #1E2223",
"3  c #1D232B",
"4  c #1D2630",
"5  c #222325",
"6  c #222926",
"7  c #242529",
"8  c #252C2B",
"9  c #2B2B2C",
"0  c #292625",
"q  c #312C2C",
"w  c #362B2A",
"e  c #27312C",
"r  c #29332E",
"t  c #32312F",
"y  c #232B33",
"u  c #2B2D33",
"i  c #242B34",
"p  c #2C3532",
"a  c #2E3934",
"s  c #2C333B",
"d  c #263039",
"f  c #333334",
"g  c #3B3435",
"h  c #313C36",
"j  c #34353A",
"k  c #343C3A",
"l  c #3B3B3D",
"z  c #393738",
"x  c #473C39",
"c  c #36413C",
"v  c #38423E",
"b  c #41413D",
"n  c #2E3943",
"m  c #2C3642",
"M  c #343C44",
"N  c #3B3D43",
"B  c #333E49",
"V  c #353B44",
"C  c #423E42",
"Z  c #3C4343",
"A  c #36414B",
"S  c #3C434C",
"D  c #3C4647",
"F  c #3B4651",
"G  c #3C4954",
"H  c #3F4E5A",
"J  c #434445",
"K  c #44464B",
"L  c #4B4B4B",
"P  c #474849",
"I  c #584944",
"U  c #47514D",
"Y  c #51514E",
"T  c #414B54",
"R  c #464E56",
"E  c #4D5255",
"W  c #45525C",
"Q  c #4A535D",
"!  c #4F5958",
"~  c #545454",
"^  c #5A5A56",
"/  c #54565C",
"(  c #5B5C5B",
")  c #565959",
"_  c #534F52",
"`  c #64544C",
"'  c #6A5B55",
"]  c #705E53",
"[  c #59605F",
"{  c #63635E",
"}  c #7A6659",
"|  c #79655A",
" . c #455462",
".. c #4A5662",
"X. c #4C5A66",
"o. c #4C5B6A",
"O. c #535C63",
"+. c #525E6B",
"@. c #5B5D62",
"#. c #54626E",
"$. c #5D656C",
"%. c #5C6668",
"&. c #546472",
"*. c #5A6673",
"=. c #5B6975",
"-. c #5C6C7A",
";. c #566A76",
":. c #5E717D",
">. c #636A6C",
",. c #666767",
"<. c #7A6C65",
"1. c #7B726D",
"2. c #636B72",
"3. c #616E7B",
"4. c #686C73",
"5. c #63727E",
"6. c #6C747B",
"7. c #6C7377",
"8. c #72757C",
"9. c #78787B",
"0. c #857972",
"q. c #84726A",
"w. c #96867D",
"e. c #5F7280",
"r. c #647582",
"t. c #697683",
"y. c #667984",
"u. c #6A7A86",
"i. c #6C7D8A",
"p. c #657F8F",
"a. c #727B82",
"s. c #717E8B",
"d. c #7B7D84",
"f. c #6E818D",
"g. c #68828A",
"h. c #7A8286",
"j. c #72828D",
"k. c #7C848B",
"l. c #7B888E",
"z. c #6E8391",
"x. c #748592",
"c. c #798693",
"v. c #758994",
"b. c #7A8A95",
"n. c #7B8D99",
"m. c #768C9B",
"M. c #7C939C",
"N. c #789299",
"B. c #7E95A1",
"V. c #7F99A1",
"C. c #7691A1",
"Z. c #83878D",
"A. c #9A8B83",
"S. c #828B93",
"D. c #818F9B",
"F. c #898E95",
"G. c #82929E",
"H. c #8B949B",
"J. c #889397",
"K. c #96979B",
"L. c #9C918A",
"P. c #AA9C94",
"I. c #A29187",
"U. c #B6A397",
"Y. c #8496A1",
"T. c #849BA5",
"R. c #8A9BA5",
"E. c #859DA9",
"W. c #8C9EA9",
"Q. c #8A96A1",
"!. c #939CA5",
"~. c #909FA9",
"^. c #979BA4",
"/. c #84A1A7",
"(. c #86A1A9",
"). c #8CA3AC",
"_. c #8EA8AF",
"`. c #92A3AD",
"'. c #9BA2A9",
"]. c #8CA6B1",
"[. c #8EA9B2",
"{. c #95A6B1",
"}. c #98A7B2",
"|. c #93ABB4",
" X c #9BABB5",
".X c #94ADB9",
"XX c #9EAFB9",
"oX c #94B1B7",
"OX c #96B2B9",
"+X c #9BB4BC",
"@X c #9EB8BF",
"#X c #BDB2AA",
"$X c #A1AFB9",
"%X c #A1ACB6",
"&X c #A3B3BC",
"*X c #A9B5BF",
"=X c #A5B8BF",
"-X c #ABAAAB",
";X c #C8B7AA",
":X c #CFBFB1",
">X c #D9C8BA",
",X c #9CB6C3",
"<X c #9EBAC2",
"1X c #97B0C0",
"2X c #97AFC0",
"3X c #A6B6C0",
"4X c #AAB7C1",
"5X c #A4BBC3",
"6X c #ABBBC4",
"7X c #A9BDC9",
"8X c #B1BDC6",
"9X c #B6BFC7",
"0X c #A4C1C7",
"qX c #ABC0C7",
"wX c #ADC2C9",
"eX c #A3C1C9",
"rX c #B3C3CB",
"tX c #B8C5CE",
"yX c #ACC4D3",
"uX c #B8C9D2",
"iX c #B6D1DC",
"pX c #CFD0D1",
"aX c #CADEE5",
"sX c #E3F3F6",
"dX c #DCE3E1",
/* pixels */
"r.y.n.).`.Y.G.G.x.i.e.*.-.*.&.&.&.+.o.-.e.s. X`.{.XX$X`.}.}.`.}.h.b , , 0 t h.=X4X8X4X4X8X4XY.t.r.e.s.m.Y.V.(.[.,XeXeX<X<X[.V.].",
"W.W.W.W.Y.M.W.R.n.i.r.e.e.t.e.e.-.&.&.m.G.}.{.R. X&X4X4X&X}.}.J.P g 9 , , , P `.3X$X}. X4X6XW.R.i.e.m.G.T./.(.oX0XeXeX<XeXoXV.V.",
"&X}.W.G.v.Y.`.}.G.s.u.t.r.i.r.e.e.;.x.Y.~. XW.W.$X*XuXtX8X X4X>.# , t , , 0 , h.XX`.W.R.}.$X3X4Xm.i.n.T.(.(._.OX0X<X0XeX7X1XV.V.",
"XXXXY.i.u.G.}.4X4X}.W.D.s.n.s.r.-.r.Y.{.}.}.}.XX*X8XrX*X*X*X4XZ - = , # , , , [ W.Y.D.G.Y.}.6X4XY.Y.Y.Y._._._.+X<X<X<X0X<X1XE.V.",
" X*X`.u.b.W.{.4XuX9X8X8X2X`.}.n.r.n.~.}.{.{. X&X*X*X$X$X}.4X X* o # ; q.# , J ,.s.m.x.m.n.~.2XXXW.{.T.R.)._.[.+X<X,X,X1X,X.XV.1X",
" X&X*XR.`.}.XX4X9XyX9X9X4X%X%X~.x.Y.}.W.R.{.}.$X&X%X=XR.>.J.F.o ; ; : ` q.0 t Y r.s.s.m.n.R.~.W.`.{.W.R.`.)._.OXOX,X1X.X1X[.1X<X",
"`.`.$X*X}.`.&X8X8X9X4X9X9X3X}.~.Y.G.W.G.Q.R.R.~.`.}.'.! c U U L I . : x | % , r -.u.s.m.s.m.Y.Y.{.).R.Y.).W.(.[.OXOX.X.X]..X5X5X",
"M.R.}.*X&X X4X8X4X6X3X3X9X3X`.~.R.D.n.n.n.n.R.W.G.l.[ c h c J 1.q., x b O + , q -.r.s.s.s.s.m.n.G.Y.R.R.).R.E.).oXoX[.].(.].5X7X",
"n.W.}.$X8X4X8X8X4X$X X{.4X&X`.{.G.l.n.v.v.n.3X$Xl.U a a a c a L.I.x ( O O + % 9 =.r.t.r.r.i.i.s.n.G.R.G.G.Y.T./.[.[.[.<XOXoX,X0X",
"M.`.{.+X*X8X8X8X4X$X~.Y.`.$X}. XR.g.v.n.b.~.9XtXj.> v ! c c a pXI.: w x O O @ 7 3.r.r.r.r.r.p.n.Y.R.&X).Q.Y.E.T.V.[.oX<XOXOX|.+X",
"b.~.`. X X&X8X4X4X$XW.n.G. X X4X%Xl.j. X}.$X8XuX%.Z [ U c c p P.A.q.' q.C %   7 r.e.e.r.r.s.s.}.4X8XuXrX+XW.Y.V.[.[.oXOX|.OX+X X",
"j.R.~.}.}.$X4X8X4X XW.D.W.`.$X&X%X).n.=XtX4X8XtX7.! c a a a p ,.w.;XU.A.g q   V r.e.e.u.R. X X X8XtXrXrXuX=XT.M.V.oXoX[.@X=X5X5X",
"f.b.W.`.`.%X=X8X&X}.).Y.`.W. X X`.}. X$X6X%X$X_.[ a c a h h r ^ q.;X;X0.I ; 1 ..e.e.e.m.8X9X6X~.XX3X6X5X6XrX=XW.T.@X<X@XqX6X5X5X",
"f.x.R.).). X&X=XXX}.`.H.`.W. X$X%X*X%X}.$XoX'.>.c c c p h h e v w.;XP.P.q.L T *.-.e.u.`.tXtX$XG.W.{.{. X+X=XwX5X(.0XwXqX5X5X*X=X",
"i.f.G.Q.R. X&X}.{.}.`.`.=X%X'.6X6X*X X_. X%Xh.v c p c e h r 6 h P.;X-XU.x Q.c.-.-.r.G.8XrX3XW.n.G.Y.Y.).`. X=XqX=XwXqXqX6X5X5X=X",
"y.j.G.~.).}. XW.W. XXX&X*X&XR.!.8X6X%XQ.`.!.! r c c c r a e 6 t w.;X;XA.Z.8X!.n.s.s.3X8X3XY.m.x.Q.W.R.{.`._.OX=XwXrXqXqX5X6X5X=X",
"r.f.m.D.R.W.W.Q.Y.}.2X$X$X}.}.D.%X*X4XQ.W.s.V j a a c r r > > r 0.:X;X-X4X4X$X%XW.}.8X3X}.n.x.n.4X8X&X&X).`.OX5XrXwXqXqXqX6X=X+X",
"r.y.i.z.n.Y.W.W.D.2X*X%X~.}.}.Y.Q.%X4X}.n./ j f a a a p 6 = 2 k 8.0.-X4X&X$X4X4X%X6X8X&X{.n.s.D.5XrXrX5X|.|.=XrXwXqXrXwXqXqX&X|.",
"e.;.-.r.x.n.Q.W.Y.}.2X}.Y.W.~.Y.D.'.4X}.k.Z p f a h a a > = p D ^.C s.3X'.}. X$X$X8X8X XW.v.m.{.&X6X6XwX0X=XqXwX6XqXwXwXqX5X@XoX",
"&.&.;.e.i.b.M.m.s.t.c.D.s.D.W.Y.^.D.*X$X2.h a a a a a h 2 = U ( ^.C 6.~.Y.R.~.}.$X6X$XR.G.v.}.8X&X=X5XwXuXrXwXqX6X6XwXwX=X@X+XoX",
"&.o.&.e.u.v.n.i.r.e.e.s.s.m.Y.W.`.`.F. XE p a a a a a h e = v ! ^.j a.Y.n.D.W.~.~.}.`.D.m.Y.3X6X=X&X*XqXwXrXrXwX5X0X0X5X=X+XoXoX",
"o. .o.-.u.m.R.s.s.r.e.c.m.m.W.~.`.XXH.>.c a a a a r a a a > e c a.z s.n.m.D.R.Y.n.D.R.c.G.XX%X3X+X&X5X7XqXwXwXqXqX=XqX5X+XoXOXoX",
" . .o.&.r.m.}.E.}.~.m.m.D.Q.Y.~.W.&X).U h a a a 8 a a a h 6 e r k j x.n.m.D.T.n.s.s.c.s.G.3X3X3X=X&X=X7X5XwXwXqX5X5X0X@XOXoXOXOX",
" . .o.&.r.n.R.W.}.}.}.D.Y.Y.Y.Y.~. X#.Z a a a p e a a a e 2 e r 6 D c.m.n.G.D.s.s.i.s.i.G.XX X3X=X X{. XOX6X0X0X0X5X+XOXoXoX|.oX",
" . .o.&.r.s.Y.W.~.s.Y.n.Y.D.Y.Y.`.a.c c a a a e r a a a e > , e 6 ! n.c.c.n.D.n.t.u.t.t.R.~.W.}.{.`.).`.).+X<X5X0X@XOXoXoX|.|.oX",
" . .o.&.p.s.D.Y.Y.e.r.s.s.s.D.~.G.P c a p a p 2 p a a c | c > e 5 t.R.c.-X-XH.k.P.d.&.t.R.R.W.`.`.`.).`.).|.+X<X@X@XOXoX[.oXoX<X",
"o.o.&.e.p.s.Y.s.t.+.e.e.s.s.Y.^.$.p c p a a e 5 Z a r ` ` ] b ; 8 }.~.-X>XpX#X' ' 0._ R a.c.D.~.`.R.).{.`._.OX+X+X+XOXoXOX@X<X0X",
"&.o.e.r.s.s.s.e.e.o.o.e.s.s.Y.c.Z e p r r a > h c r b ` w q.q.q.0.A.L.>X>XL.<.j 1 z C C d.e.x.R.R.G.G.W.W._.OXOX+XOXOX+X<X0X@X@X",
"e.e.e.s.p.s.e.&. .o...e.r.s.Y.*.e e e a p e h k r r I x b q.] } q.] A.pX<.~ E f K C < g K *.s.m.G.M.M.G.T._.oXOXOXoX+XqX0X0X+XOX",
"C.e.r.s.m.p.o.o.o.&.o.e.s.D.D._ 2 e 8 a r k v r p e t q ` q.] q.q.} q.A.x >.,.J @.V < 1 < =.s.s.c.b.b.b.B.(.|.|.OX@X5X<X@X@XoX|.",
"W.r.e.s.n.t. . .*.*.e.o.c.%Xc.s 2 6 e p h U r r r 2 2 t ] q.] q.` ` ` _ K T u u d 7 C u i t.u.u.i.x.b.v.M.G.(.|.OX5X5XOXOX|.).).",
"D.r.e.i.n.e. .o.*.e.+.e.c.%Xt.; 2 6 6 r 9 p e 8 p = 6 t ] ] I w w w g / C < 1 1 4 u 2.C t.s.r.i.i.i.v.v.b.M.W.@X<X<XOXOXOX|.(.(.",
"x.r.-.-.s.*. ...*.-.;.t.c.{.%.@ q u $ 5 1 N 7 @ V & 5 p x x 0 9 w 0 l k.S d 3 < m m j $.~.u.t.r.s.s.p.s.b.M.oX7X5X+XoX|.oX[.(.E.",
"s.r.*.#.c.e.o.o.*.-.e.p.n.m.Q - f 1 $ N s B < ; ~ < @ * & # q 9 9 w 8.&X*.V G S H B n S. Xs.u.u.i.s.s.p.b.V.OX6X5XOXoXoX|.[.).T.",
"i.i.-.*.t.t.&.&.e.r.r.s.x.s.T u R 5 $ 7 C u m u Z.N * $ @ $ 8 9 9 h.6X$Xt.S ..Q ;.+.R.R.W.n.s.p.p.s.p.s.Q./.|.@X+XoXoX[.[.].E.E.",
"s.v.t.e.p.s.3.3.r.i.s.v.b.i.>.^.8.f 7 + 5 m C C F.O.S M 2 6 = 6 e h.XX{.t.*.#.X.v.=.`.W.x.s.x.u.s.s.x.T.|._._.oXoX[.|.|.).].E.T.",
"x.v.s.u.n.s.e.r.r.i.s.Y.D.s.'.7._ 9 5 5 < V / C H.O.C T 7 e $ 4 8 6. X Xb.t.*.X.W.:.R.G.u.f.j.i.p.s.Y.+X|.|.[.oX[.[.].[.).(./.V.",
"s.x.G.G.W.s.*.e.t.t.s.B.b.!.k.P ^ 5 % 7 5 9 4.C F.>.B C 8 8 $ 8 < 7.}.5XT.5.+.! W.r.s.k.r.H.}.x.p.s.{.,X.X.XoX|.[.(.(.].(.(.E.E.",
"t.i.n.`.}.i.*.t.t.s.i.i.Q.!.~ Y _ * < < < / a.C Z.4.B V 2 e > 8 * 9.%XpX].r.#...Q.i.6.i.i.&XrXW.i.m. X3X X.X|.[.(./.E.].)./.E.V.",
"r.t.i.G.Q.r.2.s.s.s.3.2.^.,.Y ~ P % < < L @.C _ 8.a.s i 2 e 2 8 0 0.*XaX|.y.#...S.j.r.t.c.&X=X}.b.`.XX X.X.X|.[.(.V.E.].(././.V.",
"i.3.r.i.u.t.t.c.s.s.,.Z.d.~ J ^ x $ * u F._ j P a.>.j S @.2 6 8 9 1.9XsX,Xs.e.X.S.D.r.D.`.}. X{.`.=X+X|.oX[.[._.(././.(././.E.V.",
"c.u.u.3.c.'.~.$Xc.t.@.d.( _ P ^ f $ * u Z.8.z q ~ R S a.8.& e 6 q | pXsX7XY.s.&.S.Q.t.!. XW.). X+X}._.|.[.oXoXoX(./.E./.V.E./.V.",
"R.R.D.c.}. X3X4XQ.2.Q ' / J J ^ 9 $ % N k.f % q z z l ~.3.> p p 9 | pXsXiX~.c.e.D.~.s.s.T.R.M.`.}.`.[.|.[.oXoX_._./.V.V.V.V.V.V.",
"~.{.W.{.~.~. X3X$X7.L / L 5 J ~ 7 & & Z d.7.x * J , 7 4X2.= c l.q | pXaXuX2XR.s.D.`.s.s.Q.G.l.G.W.W.[.[.[.[.[./.(.V.V.V.M.V.V.V.",
"G.W.`.Y.n.Y. X~.%X/ J L u @ _ _ 7 < 1 C @.( _ 0 9 % @ S.=.- O.tX@.9.aXiXyX.XR.D.G.}.D.t.D.n.v.n.M.G.).)._._.V._././.N.N.N.V.V.V.",
"b.G.Y.l.u.c.k.!.d.C z z + g P f 5 5 < u K 8.a.K + $ X K $.$ H.tXS.-XaXiXyX1XW.B.W.}.b.e.v.c.v.b.c.v.M.E./._./.V./.V.M.N.N.N.V.[.",
"G.k.j.s.i.t.4.F.) P l 5 f ~ q < 7 < < < Z.^.^.^.0 X   / 2.D 4X*X%X7X,X1X1X].W.Y..X7XC.s.s.i.x.x.j.f.n.B.V.V.V.V.V.M.N.N.b.N.[.oX",
"j.v.u.u.s.$.2.4.^ P J f { l 1 < 7 < < 9 Z.K.^./ C r   E 5.h.$X}.`..XE.R.W.E.E.C.{.7XG.s.t.i.j.i.g.f.b.M.V.V.V.V.M.M.N.v.z.N.[.oX",
"5.c.j.y.b./ P ,.^ J x ( ~ 7 * * < 5 < 7 d.^.6.g H.d.X C Z.R.W.Q.W.T.x.m.m.m.n.m.{.yXB.x.i.p.z.y.y.x.N.Y./.V.N.N.N.N.v.g.g.N./.|.",
"j.M.J.f.s.E ~ ,.Y J Y ^ 8 7 2 < < 1 5 u C L g C d.K.N i ~.Y.G.D.E.x.r.r.r.r.s.z.T.yXC.z.s.z.s.r.r.x.M.T.V.V.N.N.N.N.v.z.g.N.(./.",
":.5.j.M.9.J { { Y J Y f 5 7 5 < % $ u V q O % % % g l . $.b.S.S.T.t.*.$.*.=.3.e.c.7Xn.s.m.m.s.r.r.f.B.T.V.N.N.M.N.l.g.v.g.z.(.V.",
"T Q *.5.) Y ,.[ P J t 7 5 5 < < % < V f 0 o + + O + o o # k.H.Z.T.*.+.X.O.+.#.&.r.|.Y.m.E.m.z.u.r.i.M.T./.M.M.M.N.g.v.g.g.z.V.M.",
"G G X.2.~ ~ { ^ K f 1 5 5 < 5 < 5 7 V f ; o # o + + + o C 8.@.*.Y.o.Q Q Q Q ....*.G.M.Y.1Xn.i.y.y.j.N.G.T.M.M./.N.z.f.g.g.v.g.g.",
"G W ..>.L ~ { ^ j < % * < 5 5 i 9 7 j g % + o + + + + . N K u t.Y. .N T T T T W +.l.x.n.,XB.r.y.6.j.v.G.T.M.T.).T.v.g.g.g.g.:.5.",
"W 5.&.,.J { { P < < < $ < 5 R C 7 7 V f # + + + + + + + . C K j.s.R B F B S S Q X.u.r.i.[.E.5.y.:.u.l.G.H.T.(._.).M.z.g.g.g.:.:.",
"..=.-.@.J { ^ 9 1 % * < + K a.V 5 5 u 0 + + + + + + # . . F.Z.n.e.T s n k A F Q X.=.&.;.m.E.:.:.:.5.j.M.T._.|.{.{.E.M.g.g.:.;.:.",
"+.#.2.) P { j 5 < % 1 * N F.2.O.$ ; 7 5 + o o + + + + X   E Z.).-.V i d s V F Q G X. .o.:.N.e.y.:.6.c.M.Y.}.|.}.(.Y.B.g.g.:.;.:.",
"j.i.a.L Y C 5 7 5 * $ u R.Z._ N 5 7 7 * o + o + + + .     X ) ,X#.m < y s B T T B G G W o.g.y.y.y.t.c.M.Y.{.|.(.T.B.M.z.u.e.:.y.",
"W.b.7.J z 7 7 < < < u s.W.K u f f u < . + + + + + + X   X   7.{.Q n m u u S F B m m F H H ;.e.p.y.y.l.b.N.).{.E.T.G.Y.x.g.6.g.g.",
"M.n.4.z 5 7 < 5 < u *.n.m.C f V l P q X o + o + + +       X Q.[.F y u s B W R B d d A G G  .e.y.y.g.N.b.c.(.).T.G.N.x.f.y.y.y.f.",
"t.b.) < * 2 5 5 s 5.;.y.t._ x K l ~ z % + + o + + X       = (.z.s 3 3 1 i A A M m d A G A G +.i.v.M._.Q.v.G.W.M.n.j.j.g.g.i.g.x.",
"*.2.f < & $ < 7 #.:.o.-.2.Y J N f Y 9 o + + + + +         i T.*.d < 3 3 7 m i y 4 y m A B B ..N.`.`.}.|.G.M.N.n.v.l.j.j.j.j.j.v.",
"&.&.s 5 & $ 3 S !  . .&.,.L J l l J % o + + + + .         S z.W 3 & 1 1 1 y y 3 4 y d B n m G T.}.(._.).N.N.f.x.j.b.l.v.v.l.v.b.",
"+.+...7 * < s G W o. .o.( Y J b Z w + + + o + -         . W ;.A 3 & 1 1 1 3 3 3 4 y d m m m B Y.}.E.).G.x.f.i.f.f.b.M.n.M.M.b.N."
};
