/* XPM */
static char *output[] = {
/* columns rows colors chars-per-pixel */
"64 64 244 2 ",
"   c #010101",
".  c #02020B",
"X  c #0C0B0C",
"o  c #1C0502",
"O  c #1A0B09",
"+  c #1D110E",
"@  c #1A1216",
"#  c #010310",
"$  c #250A03",
"%  c #2B0D04",
"&  c #250B05",
"*  c #370C07",
"=  c #2D1006",
"-  c #2D150B",
";  c #2E180B",
":  c #331206",
">  c #3C1905",
",  c #34140A",
"<  c #3B150A",
"1  c #341A0D",
"2  c #3C1A0C",
"3  c #3B1406",
"4  c #3C1D12",
"5  c #371911",
"6  c #2A1A17",
"7  c #3D200F",
"8  c #3D2113",
"9  c #3D241C",
"0  c #35221D",
"q  c #262529",
"w  c #362928",
"e  c #43130B",
"r  c #431B0C",
"t  c #4A1B0B",
"y  c #431C11",
"u  c #4A1D14",
"i  c #461914",
"p  c #521E13",
"a  c #5E1F0D",
"s  c #45200F",
"d  c #4C210C",
"f  c #53240E",
"g  c #5B270D",
"h  c #442414",
"j  c #4B2413",
"k  c #4B2916",
"l  c #44241A",
"z  c #4B251A",
"x  c #46291B",
"c  c #4C2A1C",
"v  c #532513",
"b  c #5A2415",
"n  c #552915",
"m  c #5B2A14",
"M  c #54261C",
"N  c #532D1D",
"B  c #5B2C1B",
"V  c #5C251C",
"C  c #54311E",
"Z  c #5C311D",
"A  c #4E301C",
"S  c #632C14",
"D  c #642C1B",
"F  c #6B2D1C",
"G  c #6C2B15",
"H  c #752C18",
"J  c #64321D",
"K  c #6C331B",
"L  c #6D381D",
"P  c #6A3113",
"I  c #72341E",
"U  c #77371C",
"Y  c #60290A",
"T  c #4D2C22",
"R  c #452B24",
"E  c #532E22",
"W  c #5B2F22",
"Q  c #512620",
"!  c #47312A",
"~  c #553223",
"^  c #5C3424",
"/  c #5D3926",
"(  c #54342A",
")  c #5B352A",
"_  c #5D3B2C",
"`  c #543B2E",
"'  c #4E3B34",
"]  c #483A37",
"[  c #523C32",
"{  c #5C3D32",
"}  c #632D21",
"|  c #692E21",
" . c #633525",
".. c #6C3522",
"X. c #633926",
"o. c #6A3A25",
"O. c #62362A",
"+. c #643C2B",
"@. c #6A3D2B",
"#. c #6F3528",
"$. c #723622",
"%. c #733A24",
"&. c #7B3A24",
"*. c #733C2A",
"=. c #7C3D2A",
"-. c #793725",
";. c #623E31",
":. c #6C3E31",
">. c #5C4235",
",. c #554039",
"<. c #5C443D",
"1. c #574237",
"2. c #64412D",
"3. c #6B412C",
"4. c #664027",
"5. c #7C4124",
"6. c #73422C",
"7. c #7B442D",
"8. c #794A2D",
"9. c #624131",
"0. c #6C4332",
"q. c #69483A",
"w. c #744633",
"e. c #7B4634",
"r. c #764A34",
"t. c #7C4A34",
"y. c #7D4C39",
"u. c #754A3A",
"i. c #7C5137",
"p. c #403C41",
"a. c #4E4748",
"s. c #4B4749",
"d. c #5B4A45",
"f. c #524B4C",
"g. c #5B4D4B",
"h. c #584543",
"j. c #5B514E",
"k. c #4C4F56",
"l. c #454E59",
"z. c #4B4F59",
"x. c #464D56",
"c. c #534E53",
"v. c #4D5057",
"b. c #4D515A",
"n. c #535156",
"m. c #5B5354",
"M. c #53545B",
"N. c #58575C",
"B. c #56585E",
"V. c #5A595E",
"C. c #684F46",
"Z. c #6A524B",
"A. c #7A5244",
"S. c #635452",
"D. c #6A5655",
"F. c #795C55",
"G. c #5C5B61",
"H. c #535660",
"J. c #85391D",
"K. c #823B25",
"L. c #863C28",
"P. c #88421E",
"I. c #844226",
"U. c #84432C",
"Y. c #8C432B",
"T. c #894A2D",
"R. c #9B4B2E",
"E. c #97462C",
"W. c #834632",
"Q. c #8B4732",
"!. c #834C33",
"~. c #8B4C34",
"^. c #844C38",
"/. c #8B4D3B",
"(. c #944C33",
"). c #9C4D32",
"_. c #954F38",
"`. c #835136",
"'. c #8B5235",
"]. c #85533B",
"[. c #8B543B",
"{. c #8D593C",
"}. c #945435",
"|. c #9C5235",
" X c #93543B",
".X c #9B553A",
"XX c #94593C",
"oX c #9D5A3D",
"OX c #85502E",
"+X c #A64B2C",
"@X c #A64E33",
"#X c #AB5235",
"$X c #A3553B",
"%X c #AB553A",
"&X c #A45C3D",
"*X c #AB5B3D",
"=X c #A65435",
"-X c #B25C3D",
";X c #BD5B3B",
":X c #B45636",
">X c #B7613F",
",X c #AA643F",
"<X c #C25A3E",
"1X c #C6633F",
"2X c #8B5B43",
"3X c #855B4A",
"4X c #895B4A",
"5X c #945D42",
"6X c #9B5D43",
"7X c #955B48",
"8X c #8B5D53",
"9X c #A35C41",
"0X c #AD5D42",
"qX c #B85E41",
"wX c #996247",
"eX c #8B6151",
"rX c #A46244",
"tX c #AC6442",
"yX c #A8684B",
"uX c #B46242",
"iX c #BB6443",
"pX c #B46945",
"aX c #BC6C4A",
"sX c #B76A47",
"dX c #C85F42",
"fX c #C46443",
"gX c #CB6443",
"hX c #CC6A46",
"jX c #CC6C4A",
"kX c #C36B47",
"lX c #D96C4B",
"zX c #D16A48",
"xX c #CD7149",
"cX c #DB724D",
"vX c #D8754B",
"bX c #CD7553",
"nX c #D87B54",
"mX c #EB7B54",
"MX c #E57954",
"NX c #E5704B",
"BX c #D88057",
"VX c #EB8357",
"CX c #F58A5D",
"ZX c #EF8E67",
/* pixels */
"z.z.z.z.z.p.H.z.z.z.z.z.z.z.n.z.n.M.z.M.b.M.z.S.8X7X7X0XsXpX>X>X>X1X1XlXgXzXgXfXnXgX1XzX;X=X|.0X0X*X5X^.y.0.u.q.,.] f.M.z.n.M.b.",
"z.l.z.l.z.z.z.z.z.z.z.z.M.n.z.n.n.z.n.n.M.n.H.m.3X7XyXaXpX>X*X*XR.@X;X>X<X1XgXzXvXhXfXgX%X(.|.).(..X.Xe.r.w.q.{ ,.' f.M.n.b.b.b.",
"z.z.z.x.z.z.z.z.z.n.z.n.z.b.n.z.n.n.z.n.n.n.M.S.8XwXyXaXxXhXaXkXuX*X-X:X:X<X:X<XzX;X:X-X@X(.*X*X$X~./.^.0.0.9.{ ,.' a.M.n.b.n.b.",
"z.x.x.x.z.z.z.z.z.z.z.n.z.n.z.n.z.n.M.z.M.c.z.S.3XwXyXpX*X.X,X,XpX*X).=X@X:X+X@X;X=X=X*X*XpX0X$X*X&X/.e.0.0.9.{ 1.[ a.M.b.b.M.b.",
"z.l.p.z.z.z.z.z.z.z.z.z.c.z.n.z.n.b.M.n.M.M.n.S.3XyX6Xt.'.6XXX{.'.W.U.&.K.R.E.E.|.E..X|.,X*X&X0X=X#X Xw.y.0.{ { 1.[ f.b.M.n.b.b.",
"z.l.z.z.z.z.z.z.n.n.z.n.z.z.z.n.b.n.n.M.z.M.b.S.eXwX{.wX,X&X{.`.4.^ /  .F U.@XK.&.*.6.8.i.6.3.o.e.U.(.6.t.0.{ { 1.[ a.M.b.b.b.b.",
"z.l.z.z.z.z.z.H.z.b.z.z.z.n.z.n.z.n.n.n.n.M.M.S.eX{.5XXXOX8.4./ ( ! ( / n -.L.L.D ^ ~ ) ~ ) 2.4.@./  .r.e.0.{ { 1.[ a.n.b.b.b.M.",
"z.z.z.z.z.z.z.z.b.z.z.z.n.z.z.n.n.n.z.z.n.n.M.h.2.{.{.8.3.4.Z k ( ( _  .~  ..XU.n E ^ ~ ( x C 4.o.6.+.+.w.0.{ { 1.[ a.b.z.b.b.b.",
"z.z.l.z.z.b.b.z.z.n.n.z.b.k.v.n.n.n.z.z.M.n.M.' C 2Xt.o.o.X.^ C N N ^ +./ &.U D z ~ W c c h k ^ C ~ 4.2.+.@.{ { >.` a.b.v.b.b.b.",
"z.z.z.z.b.z.b.b.z.b.z.b.b.z.k.k.z.n.n.n.b.n.M.<.+.wX8.4.o.w.o. .Z N M / o.-X;XqX .n c z z z N ~ A A ~ / ( _ { { 1.` a.b.v.b.b.b.",
"z.z.z.b.z.v.b.z.b.b.z.b.z.b.v.k.k.v.n.b.n.n.n.Z.].wXt.o.7.'.*.) B B M T ..+X;X:X7.c h z N W ) ^ ~ c x 2.( 9 ` { >.` f.b.v.b.b.b.",
"l.z.v.v.z.v.z.b.z.b.z.k.b.b.k.k.k.v.z.n.z.n.z.Z.XXXX8.3.e.n & o = , y h K vXVX>Xo.z 4 h c  .@.:.~ A x C c 0 ] 1.[ [ f.b.b.b.M.b.",
"z.z.z.z.z.v.b.v.n.z.z.z.v.v.k.v.k.v.v.v.D.F.n.h.{.{.8.8.m , - 6 5 = , 4 W.mXMXgXo.4 = = o & y O.3.C c c c x w ] [ [ k.v.v.b.b.b.",
"z.z.b.b.v.v.b.z.z.b.z.k.b.z.b.b.v.v.v.x.4XMXF.,.[.XX6.o.c +.+.E l 5 5 l ).CXVXgX..8 & & - O o % n X.~ C ~ ~ ! ] ' { f.v.v.b.b.n.",
"z.v.z.b.b.v.z.b.b.z.z.z.z.b.z.n.v.k.v.v.A.NXBXA.'.'.6.J ^ 0.0.^ M y x c -XVXVXfX%.x 1 ; 4 R Q l 2 Z / C C / / R ' { c.z.v.b.b.M.",
"z.z.z.z.z.b.b.z.b.b.z.z.z.z.b.z.v.v.v.b.r.:XCXyXW.}.6.4.+. .+. .^ z x W iXMXMXuX*.c 8 1 u ( E / c d X.C ) w.y.` 0 { b.D.S.b.b.b.",
"z.z.z.b.z.z.b.l.b.z.z.z.v.z.b.b.k.k.k.v.u.).nXyX^.pXoX3.3.@.X.^ E Q Q /.dXmXlX0XW.+.5 5 c E ) W N n ^ / / `.y.>.9 ! 8XdX3Xz.b.b.",
"z.v.b.l.b.b.z.b.v.z.z.z.z.v.z.z.k.k.v.v.u.Q.kXyX}.pXBXrXy.3.W W ( T @.0XlXmXlX9XW.o.9 4 u T Q ( ^ T N c N *.r.[ R R kX@X=.c.H.M.",
"z.b.b.b.z.b.z.z.b.l.b.l.v.z.v.z.b.b.k.b.e.W.&X9XoX,XnXnXpX^.X.W ) O.2XdXlXmXzX).W.@.T R l R T T E E z c ~ @.0._ ! } #XL.L.g.z.b.",
"z.z.z.b.b.z.b.z.v.z.z.v.b.b.b.b.b.z.k.n.e.7. X5X.XpX,XvX=X6.X.^ W e.9XlXlXmXlX0X/.W.O.E R Q T E T c c T ) e.0.{ E O.L.*.=.g.b.M.",
"z.z.z.z.z.b.z.b.v.l.v.b.z.b.z.n.z.n.z.n./.K.W.7XW.$XkX}.t.w.6.7..XrXiXcXNXZXMXqX.X.X/.E Q T E Q T z E E O.w.0.[ )  .*.*.=.g.b.n.",
"l.z.z.z.z.z.b.z.v.z.b.z.z.z.b.z.z.z.k.z.7XQ.!.7X^.9X#XW.*XoXsXbXjX=XiXlXmXZXmXdX~..X.X[.E R ( :.y.O.T / y.w.+.{ ) O.@.@.@.h.b.M.",
"z.z.z.z.z.z.z.l.z.z.v.z.z.k.k.z.b.k.z.n.6X.X~.5X].oXQ.oX*XfXzX<XR.).bXzXcXnXlX:XQ.U.Q.$X9X:.z W +.X.6.^.^.u.+.{ ) @. .+...h.H.b.",
"z.z.z.z.z.z.b.v.v.z.z.z.z.v.z.k.n.z.z.z.6X|.U.5X2X~.^.tXuXqXL.L.E.qXxX>XdXdXdXE.Q.0XQ.Y.$XrXt.W V  X$X X^.0.{ _ ) @.V  .F h.b.b.",
"l.z.z.z.z.z.z.l.z.l.z.z.k.z.z.z.z.b.z.k.7X). XwX2X^.[.0X$XE.*XkX*X0X%X).0X#XE.K.L.fX XQ.L.$X9X/.#.I }._.e.0.;.[ ) @.W } D p.G.n.",
"z.z.z.z.z.z.z.H.H.l.z.z.z.z.k.z.b.z.k.x.3X).0X7X].t.2X9X(.iXnX;XJ.).(.Q.Q.Y.K.-.$.@X~.Q.$XL.)..X^.} W./.3.+._ { ) o. .O.V h.M.M.",
"z.z.z.z.z.z.z.z.z.H.z.z.z.z.z.n.b.b.z.z.3XR.wX2X[.t.5X$X>XxX1XE.H L.Y.-.U.L.&.-.-.L.-.-.-X9X-.(.(.#.@.7.@.+.+.{ ( u } O.W j.M.M.",
"z.z.l.H.z.z.H.z.z.z.z.z.z.z.z.z.z.z.b.l.eX:XrX2X[.^.[.$XkX1X#XH -._.H t L.K.$.v F &.| | E.qX_.-.W.*.o.6.@.;.0._ E u } } W M.z.M.",
"z.z.l.z.z.z.z.z.z.z.z.z.z.H.b.z.b.v.b.l.8XcXrX].[.y.'.0XiXuXL.H 9X0Xa b $.K.D < e U F #.L.#X0XW.*.*.O.@.+.+.9.{ ( z p } { N.M.M.",
"H.z.H.z.z.z.z.z.z.z.z.z.z.z.z.b.z.b.z.l.8XVXrX2X{.t.].,X,X$XU &.bX*Xt e v K b t e t D Q.I ).%X9X*.3.@.@.3.2.9.{ ) u p } p.G.M.M.",
"l.z.z.z.H.z.z.z.H.z.z.z.z.b.b.z.b.b.b.b.Z.nXiX].XXt.[.tX&XY.H $XnX(.r < i t t , * , D .X$.K.*X0Xe.@.+.@.+.0.;.{ O.u i } m.M.M.M.",
"z.z.H.l.z.z.H.l.z.z.z.z.z.z.z.b.z.v.k.n.k.aX+X^.XX].XXtX.X5.K.iX:XI.r : : : 3 % = * u 6XL.G Y.L.=.+.+.+.X.2.;.( ;.u e ) M.M.M.M.",
"l.b.b.b.l.b.l.b.b.b.b.b.x.b.b.b.b.v.b.v.x.wX,X].XXXXXXXXOXOXR.:XJ.L d : $ $ % $ o $ 3 (.}.D L.*.*.O.+.+.+.2._ { ^ * e { H.M.M.M.",
"b.b.b.b.b.b.b.b.b.b.b.x.b.b.b.b.b.b.b.v.v.].&X{.XXwXXX}.T.|.R.P.P Y v : $ $ $ o o = , I Q...=.*.@.+.+.+.+.+.9.;.i 5 Q d.H.M.M.N.",
"b.b.b.b.H.b.b.b.b.b.b.b.b.b.b.b.b.b.v.v.v.A.|.{.'.wX}.'.|.}.P.P S g f , o $ $ $ o = d J %...K @.@.@.X.X.+.2.9._ r Q :.m.N.M.N.M.",
"b.b.b.b.b.b.b.b.b.b.b.b.b.b.b.b.b.b.v.v.x.3X>XwX[.wXOXOX&XOXP P S f t > $ $ $ $ o = d m S L B o.o.+.X._ 2.+.>._ W O.{ M.M.M.M.N.",
"b.b.b.b.b.b.b.H.b.b.b.b.b.b.b.M.b.b.b.z.z.eXxXXX'.XXt.T.oX5.g g S m f i : = = % $ < f n m K B J @.+.X._ +.9.2.)  .4.<.B.M.N.N.N.",
"b.b.b.b.H.b.b.b.b.l.b.b.b.b.b.b.b.b.v.b.b.A.>XXX[.XXr.T.|.P d Y L $.$.$.S v t t r r v d g g n ^ @.@.+._ +._ 2.) Z 4.j.B.M.M.M.N.",
"H.l.H.b.b.l.b.b.l.b.H.b.b.b.b.b.v.b.b.v.b.n.!.`.[. X7.T.I.g d n J D a p D | D D D v m d r s t ^ +.@.+._ 2.+.>.T N +.m.M.M.M.N.N.",
"b.H.b.b.H.b.b.b.B.H.b.b.M.b.b.b.b.b.b.n.n.v.n.A.{.[.6.!.5.f r < e r e * * * , * e v Z m > > j Z +.o.+.+.;.>.+.W Q { N.N.N.N.N.N.",
"b.b.l.b.b.b.b.b.B.b.b.l.b.B.b.b.n.b.b.b.M.M.b.Z.[.[.6.W.L s 3 < i V } M i i 5 , * * * r s > r Z +.X.X._ +.2.2.B O.;.H.N.N.N.N.N.",
"b.b.H.b.H.b.l.H.b.b.b.B.b.b.B.b.M.b.M.b.b.n.b.Z.]. X^.W.P > 3 N  .*.W.*. .M M u i i , % , > > Z  . .+._ _ 2.>.+.:.S.G.N.N.M.V.H.",
"b.b.b.b.b.b.H.b.b.b.v.M.b.b.b.b.b.b.b.b.M.n.M.S.i.[.'. XJ : > N o.7.I.K m y 2 z z u i 4 = : > ^  .^ +.+.2.+.>.V.N.V.N.N.V.N.V.V.",
"H.b.H.b.b.b.H.b.b.M.b.b.b.M.M.b.b.M.n.n.v.n.b.j.i.'.XX XJ = , m o.7.L m v , : 2 r 4 i , : % : m O./ X.2.2._ <.V.N.H.N.N.N.V.N.N.",
"H.l.H.b.b.b.b.b.b.b.B.b.M.v.v.b.b.b.M.n.n.n.M.j.i.`.{.'.Z : 2 B I L f m n : % = < 4 < : , = : B O.W +.+.2./ d.B.V.V.V.V.N.N.V.V.",
"b.H.l.b.b.H.b.H.M.b.b.b.b.b.M.b.M.b.M.M.M.n.M.n.u.t.[.8.n : h L I P d f d > % , : < 4 , = % , m  .^ @.+.+.+.j.B.V.V.M.V.V.V.N.V.",
"H.l.b.b.H.b.b.b.b.M.b.b.M.M.b.M.M.M.M.n.M.M.M.n.u.t.!.r.z , Z K K S f d r 2 : = : < 5 < = $ , W O./ @.2.+._ m.V.N.V.V.V.V.V.V.G.",
"b.H.H.b.b.b.b.H.M.b.M.M.M.b.M.M.M.M.M.M.M.M.m.M.u.8.r.r.c 2 J K I S g r 2 > = : < , < < , = , W ^ O.3.+.X.>.M.V.N.V.V.V.M.N.G.M.",
"B.b.B.l.b.M.M.H.M.b.B.b.b.B.b.B.M.B.v.n.B.v.B.n.q.8.i.8.k h n P U K g d v r : < > 2 j s 2 - , Z ^ O.@.+.4.1.V.V.V.V.V.V.N.V.N.V.",
"b.H.b.H.b.B.M.b.b.H.b.B.B.b.B.b.v.B.B.n.n.B.v.M.j.8.i.i.C s n L U J.F g D m r > r r N k h 4 4  .W +.+._ X.d.V.B.V.V.V.V.V.N.V.V.",
"H.b.H.H.B.b.b.B.B.b.B.b.B.b.b.B.n.B.M.M.B.n.B.M.j.8.i.OX/ C Z %.U.5.I.I K S S t j f Z C c 7 h ^ ^ X.+._ _ j.G.V.V.V.V.V.V.N.N.V.",
"b.H.b.H.b.B.b.b.b.B.B.b.b.b.B.M.B.n.n.M.n.B.n.B.N.q.i.`.Z A Z 8.U.5.I.I.$.K ..b n J J Z k 2 2 ) ) +.+./ 1.V.V.V.V.V.V.V.V.V.V.V.",
"H.H.b.H.H.b.b.H.b.B.B.M.H.M.M.M.m.M.B.M.n.N.M.m.B.g.r.'./ h Z 6.%.%.I.U K D K K m Z o.C c h x N / X./ / d.G.D.G.V.V.V.V.V.V.G.V.",
"b.H.H.H.H.H.B.H.B.b.M.M.B.B.M.B.M.m.M.B.N.M.M.N.B.g.3.t.C A 4.4.L I 5.&.I F F $.n m X.A x x c W ^ X./ ^ f.G.V.V.V.V.V.V.V.D.V.V.",
"H.M.M.H.B.b.H.H.b.H.M.B.M.B.B.M.B.B.M.m.M.M.M.M.B.d.X.w.A A 3.J J $.*.*...D D ..v m ^ k h 8 c ^ X./ ^ ( j.V.V.V.G.V.V.V.V.V.V.G.",
"H.H.H.b.b.B.B.b.B.B.M.M.B.B.m.B.B.M.M.B.B.N.N.M.B.d. .+.A c / X.3.J o.K K m n n h h k k x h W  . .) C c c.V.V.V.G.V.G.V.V.V.V.V.",
"H.M.b.B.B.M.M.B.b.H.M.N.N.N.N.M.N.M.N.M.N.N.B.M.M.g.O.o.A A / / X.Z J n D m v n h 2 8 h h x ^ +.^ N c E m.V.V.V.V.V.V.V.V.V.V.G.",
"B.B.B.b.b.B.B.B.B.B.N.N.N.M.N.B.N.N.M.N.M.N.N.B.N.d.O.O.~ c c ~ C N N v v j h k 2 2 h 8 h T ^ J W c M R s.G.V.V.G.D.V.V.V.V.V.V.",
"b.H.B.B.B.B.B.B.B.B.N.N.N.N.B.N.N.N.N.N.N.N.N.V.k.0  .o.~ x c A k h k k s h r 2 8 7 8 8 9 c X.N c c T R X s.G.B.G.V.V.V.V.V.V.V.",
"B.H.b.B.B.B.B.B.B.B.B.B.B.V.N.V.N.N.N.N.N.N.M.D.q O +.X.X.C 8 c k k j c s 2 2 2 4 8 ; 8 h C C c c c T 9   X v.G.V.G.V.V.V.V.V.G.",
"B.H.B.B.B.V.V.V.V.V.V.V.V.V.V.V.V.V.V.V.V.B.G.n.. + O.X.o.) h x x h 8 8 7 1 : = 7 ; ; 1 l W M c k z T 0 .   q G.V.V.V.V.V.V.V.G.",
"B.b.B.B.V.V.B.V.V.V.V.V.V.V.V.V.V.V.V.V.B.B.G.w   - +.+.o.+.) h l l 8 7 1 1 ; ; ; - ; l c W c c n c R 6 .     ] G.V.V.V.V.V.V.V.",
"B.B.B.B.B.G.V.V.V.V.V.V.V.V.V.V.S.G.V.V.V.V.m.@   @ ) O.o.@.2./ A T x 8 8 1 ; - - 7 c C N N z c z l l 6 . .   X m.V.V.V.G.G.G.B.",
"B.B.B.B.B.V.V.V.V.V.V.G.G.V.V.V.V.V.V.V.V.V.a.X   @ )  .o.+.+.3.2./ ~ k 9 7 1 1 c / ) N N c z c z R 4 + # .     q G.B.V.V.B.B.G."
};
